<?xml version="1.0" encoding="utf-8"?>
<!-- Generator: Adobe Illustrator 21.0.2, SVG Export Plug-In . SVG Version: 6.00 Build 0)  -->
<svg version="1.1" baseProfile="tiny" id="Layer_1" xmlns="http://www.w3.org/2000/svg" xmlns:xlink="http://www.w3.org/1999/xlink"
	 x="0px" y="0px" viewBox="0 0 289.8 597.8" overflow="scroll" xml:space="preserve">
<g>
	<polygon fill="#9C7448" points="102.5,317.9 102.5,317.9 193.8,317.9 193.8,317.9 	"/>
	<path fill="#FFFFFF" d="M99.1,241V58.4c0-2.2-1.6-4-3.6-4H51.6c-2.2,0-4,2-4,4.6v182.1c0,2.6,1.9,4.7,4.2,4.7h43.1
		C97.2,245.8,99.1,243.6,99.1,241z M92.9,238.8H53.7V61.4h39.2V238.8z"/>
	<g>
		<path fill="#FFFFFF" d="M193.9,324.9h-91.4c-6.3,0-11.4-5.8-11.4-13v-26.8c0-6.8,4.8-12.3,10.8-12.3h92.9
			c5.7,0,10.3,5.2,10.3,11.7v27.7C205.1,319.2,200.1,324.9,193.9,324.9z M101.9,279.9c-2.6,0-4.6,2.4-4.6,5.3v26.8
			c0,3.3,2.4,6,5.2,6h91.4c2.8,0,5-2.5,5-5.7v-27.7c0-2.6-1.8-4.7-4.1-4.7H101.9z"/>
	</g>
	<g>
		<path fill="#FFFFFF" d="M194,317.9h-91.6c-2.9,0-5.2-2.6-5.2-5.9v-26.9c0-2.9,2.1-5.2,4.6-5.2H195c2.2,0,4,2,4,4.5v28
			C198.9,315.4,196.7,317.9,194,317.9z M104.3,310.9h87.6c0.5,0,0.9-0.4,0.9-1v-22c0-0.5-0.4-1-0.9-1h-87.6c-0.5,0-0.9,0.4-0.9,1v22
			C103.4,310.5,103.8,310.9,104.3,310.9z"/>
	</g>
	<g>
		<path fill="#FFFFFF" d="M94.8,252.8H51.7c-5.7,0-10.3-5.3-10.3-11.7V58.9c0-6.4,4.6-11.6,10.2-11.6h43.9c5.4,0,9.7,5,9.7,11V241
			C105.2,247.5,100.6,252.8,94.8,252.8z M51.6,54.4c-2.2,0-4,2-4,4.6v182.1c0,2.6,1.9,4.7,4.2,4.7h43.1c2.3,0,4.3-2.2,4.3-4.8V58.4
			c0-2.2-1.6-4-3.6-4H51.6z"/>
	</g>
	<path fill="#FFFFFF" d="M244.2,240.9V58.4c0-2.2-1.6-4-3.6-4h-44.1c-2.2,0-4,2-4,4.6v182c0,2.6,1.9,4.7,4.2,4.7H240
		C242.3,245.7,244.2,243.5,244.2,240.9z M238,238.7h-39.3V61.4H238V238.7z"/>
	<g>
		<path fill="#FFFFFF" d="M240,252.7h-43.3c-5.7,0-10.4-5.3-10.4-11.7v-182c0-6.4,4.6-11.6,10.2-11.6h44.1c5.4,0,9.8,5,9.8,11v182.5
			C250.4,247.4,245.7,252.7,240,252.7z M196.5,54.4c-2.2,0-4,2-4,4.6v182c0,2.6,1.9,4.7,4.2,4.7H240c2.4,0,4.3-2.2,4.3-4.8V58.4
			c0-2.2-1.6-4-3.6-4H196.5z"/>
	</g>
	<path fill="#FFFFFF" d="M244,538.5V356.1c0-2.2-1.6-4-3.6-4h-43.8c-2.2,0-4,2-4,4.5v182c0,2.6,1.9,4.7,4.2,4.7h43
		C242.1,543.3,244,541.2,244,538.5z M237.9,536.3h-39.1V359.1h39.1V536.3z"/>
	<g>
		<path fill="#FFFFFF" d="M239.8,550.3h-43c-5.7,0-10.3-5.3-10.3-11.7v-182c0-6.4,4.6-11.5,10.2-11.5h43.8c5.4,0,9.7,5,9.7,11v182.4
			C250.2,545,245.5,550.3,239.8,550.3z M196.6,352.1c-2.2,0-4,2-4,4.5v182c0,2.6,1.9,4.7,4.2,4.7h43c2.3,0,4.2-2.2,4.2-4.8V356.1
			c0-2.2-1.6-4-3.6-4H196.6z"/>
	</g>
	<path fill="#FFFFFF" d="M99.1,538.7V356.1c0-2.2-1.6-4-3.6-4H51.6c-2.2,0-4,2-4,4.6v182.1c0,2.6,1.9,4.7,4.2,4.7h43.1
		C97.2,543.5,99.1,541.3,99.1,538.7z M92.9,536.5H53.7V359.1h39.2V536.5z"/>
	<g>
		<path fill="#FFFFFF" d="M94.8,550.5H51.7c-5.7,0-10.3-5.3-10.3-11.7V356.7c0-6.4,4.6-11.6,10.2-11.6h43.9c5.4,0,9.7,5,9.7,11
			v182.5C105.2,545.2,100.6,550.5,94.8,550.5z M51.6,352.1c-2.2,0-4,2-4,4.6v182.1c0,2.6,1.9,4.7,4.2,4.7h43.1
			c2.3,0,4.3-2.2,4.3-4.8V356.1c0-2.2-1.6-4-3.6-4H51.6z"/>
	</g>
	<g>
		<path fill="#FFFFFF" d="M0,1.3v595.3h289.8V1.3H0z M110.5,110.3c-0.2-2-0.5-4.2-0.9-6.4c-0.1-0.5,0.1-0.9,0.6-1.2
			c0.5-0.3,1.1-0.5,1.8-0.5c0.7,0,1.3,0,1.9,0.3c0.6,0.2,0.9,0.5,1,1c0.7,3.2,1.9,6.1,3.7,8.8c1.7,2.6,3.9,4.9,6.6,6.7
			c2.6,1.8,5.6,3.3,9,4.3c3.4,1,7,1.6,11,1.6c3,0,5.8-0.3,8.5-0.9c2.7-0.6,5.1-1.5,7.2-2.6c2.1-1.1,3.8-2.5,5-4.2
			c1.2-1.6,1.8-3.6,1.8-5.8c0-2.8-0.9-5.3-2.6-7.4c-1.7-2.1-3.8-3.9-6.4-5.5c-2.5-1.5-5.3-2.9-8.4-4c-3.1-1.1-6-2.2-8.8-3.1
			c-3.7-1.2-7.3-2.4-10.9-3.7c-3.6-1.2-6.9-2.8-9.7-4.5c-2.9-1.8-5.2-3.9-6.9-6.4c-1.8-2.5-2.7-5.6-2.7-9.3c0-3.8,1.1-6.9,3.2-9.5
			c2.1-2.6,5-4.6,8.5-6.2c3.5-1.6,7.5-2.7,12.1-3.4c4.5-0.7,9.2-1.1,14-1.1c3.1,0,5.7,0.1,7.9,0.4c2.1,0.3,4.5,0.7,7.2,1.4
			c1.4,0.3,2.6,0.6,3.5,0.7c0.9,0.2,1.8,0.3,2.7,0.3c1.3,0,2.3-0.4,2.8-1.2c0.2-0.3,0.6-0.5,1.3-0.7c0.6-0.1,1.2-0.2,1.7-0.1
			c0.5,0.1,1,0.2,1.5,0.3c0.5,0.2,0.6,0.4,0.5,0.7c-0.6,1.4-1,2.8-1.1,4.2c-0.2,1.4-0.2,2.9-0.2,4.5c0,2.1,0.2,3.9,0.5,5.6
			c0.3,1.7,0.6,3.6,0.8,5.9c0,0.2-0.2,0.4-0.7,0.6c-0.5,0.2-1,0.3-1.6,0.4c-0.6,0.1-1.2,0-1.7-0.2c-0.6-0.2-0.9-0.5-1-0.8
			c-1.1-3.5-2.3-6.3-3.6-8.5c-1.3-2.2-3-4-5-5.2c-2-1.2-4.4-2.1-7.2-2.6c-2.8-0.5-6.2-0.7-10.1-0.7c-2.8,0-5.4,0.3-7.9,0.8
			c-2.5,0.5-4.6,1.3-6.5,2.3c-1.9,1-3.3,2.3-4.4,3.8c-1.1,1.5-1.7,3.3-1.7,5.2c0,2.4,0.7,4.4,2.1,6c1.4,1.6,3.1,2.9,5.3,4.1
			c2.1,1.1,4.5,2.1,7.1,2.9c2.6,0.8,5.1,1.6,7.5,2.4c4.2,1.4,8.4,2.9,12.5,4.5c4.1,1.6,7.8,3.4,11.1,5.5c3.3,2.1,5.9,4.6,8,7.4
			c2,2.9,3.1,6.3,3.1,10.4c0,4.1-1.2,7.5-3.5,10.3c-2.4,2.8-5.4,5.1-9.2,6.8c-3.8,1.8-8.1,3-12.8,3.8c-4.7,0.8-9.5,1.2-14.2,1.2
			c-3.1,0-6.6-0.3-10.4-1c-3.8-0.7-7.4-1.7-10.5-3c-0.6-0.2-1.1-0.3-1.6-0.5c-0.5-0.2-1.1-0.2-1.9-0.2c-0.8,0-1.7,0.2-2.5,0.7
			c-0.9,0.5-1.7,1.3-2.3,2.5c-0.3,0.5-0.8,0.8-1.3,0.9c-0.6,0.2-1.1,0.2-1.7,0.2c-0.6-0.1-1.1-0.2-1.5-0.4c-0.4-0.2-0.6-0.5-0.6-0.8
			c0.3-1.7,0.6-3.6,0.9-5.6c0.3-2,0.4-4,0.4-6.1C110.7,114.4,110.6,112.4,110.5,110.3z M109.1,248.8c2.1-3.7,4.5-6.9,7.2-9.7
			c2.7-2.8,5.6-5.3,8.6-7.5c3-2.2,6.1-4.2,9.2-5.9c3.1-1.7,6.2-3.4,9.2-5c3-1.6,5.9-3.2,8.5-4.8c2.7-1.6,5-3.3,7-5.2
			c2-1.9,3.6-4,4.8-6.3c1.2-2.3,1.8-5,1.8-8.1c0-5.7-1.7-10.1-5.2-13.4c-3.4-3.3-8.9-5-16.5-5c-3.5,0-6.5,0.4-9.2,1.3
			c-2.6,0.9-4.8,1.9-6.5,3.1c-1.7,1.2-3,2.5-3.9,3.7c-0.9,1.3-1.3,2.4-1.3,3.2c0,0.3,0.1,0.8,0.2,1.4c0.1,0.6,0.4,1.1,0.9,1.7
			c0.5,0.6,1.2,1,2.2,1.4c1,0.4,2.3,0.6,4,0.6c2.5,0,4.2,0.5,5.2,1.4c1,0.9,1.5,2,1.5,3.4c0,1.5-0.7,2.8-2.2,4
			c-1.3,1.2-3.5,1.8-6.5,1.8c-2.9,0-5.2-0.4-6.9-1.2c-1.8-0.8-3.2-1.8-4.2-2.9c-1-1.2-1.7-2.4-2.1-3.7c-0.4-1.3-0.6-2.4-0.6-3.4
			c0-2.8,0.8-5.5,2.5-8c1.7-2.5,4-4.7,7-6.6c3-1.9,6.6-3.4,10.8-4.5c4.2-1.1,8.9-1.7,14-1.7c6.1,0,11.4,0.5,15.8,1.6
			c4.4,1.1,8,2.5,10.9,4.4c2.8,1.9,4.9,4.2,6.3,6.8c1.3,2.6,2,5.5,2,8.7c0,4.5-1.4,8.4-4.2,11.7c-2.8,3.3-6.3,6.3-10.5,9
			c-4.2,2.7-8.7,5.1-13.5,7.3c-2.4,1.1-4.8,2.2-7,3.3c-2.3,1.1-4.4,2.1-6.5,3.2c-4.2,2.1-7.7,4.3-10.5,6.4c-2.8,2.1-4.2,4.6-4.2,7.3
			c0,0.2,1.3,0.1,4-0.3c2.8-0.4,6.1-0.6,9.8-0.6c2.1,0,4.1,0.1,6.1,0.2c2,0.2,3.8,0.3,5.6,0.5c1.8,0.2,3.5,0.4,5.2,0.5
			c1.7,0.2,3.3,0.2,5,0.2c4.9,0,8.7-0.9,11.4-2.8c2.7-1.9,4.8-5.2,6.1-10.1c0.1-0.4,0.4-0.7,0.9-0.9c0.5-0.2,1.1-0.3,1.7-0.3
			c0.8,0,1.6,0.2,2.3,0.5c0.7,0.3,1.1,0.7,1.1,1.3c0,2.7-0.4,5.4-1.1,8.1c-0.7,2.7-1.8,5.2-3.3,7.3c-1.5,2.2-3.4,4-5.7,5.4
			c-2.3,1.4-5.1,2.1-8.3,2.1c-3.5,0-7.2-0.1-10.8-0.4c-3.7-0.2-7.2-0.5-10.7-0.9c-3.5-0.3-6.8-0.6-10-0.9c-3.2-0.2-6.1-0.4-8.8-0.4
			c-3.6-0.1-6.7,0.2-9.3,0.9c-1.3,0.3-2.6,0.6-3.7,0.8c-1.1,0.2-2.2,0.5-3.1,0.6c-1.4,0-2.3-0.4-2.7-1.1c-0.4-0.7-0.6-1.4-0.6-2.2
			C108.6,250,108.8,249.4,109.1,248.8z M126.8,421.6c1,0.7,2.4,1.2,4,1.6c1.6,0.4,3.3,0.7,5,0.8c1.8,0.2,3.4,0.2,5,0.2
			c4.6,0,8.5-0.6,11.7-1.7c3.2-1.2,5.7-2.6,7.7-4.4c1.9-1.8,3.3-3.7,4.2-5.9c0.9-2.1,1.3-4.3,1.3-6.3c0-2.4-0.4-4.7-1.3-6.9
			c-0.8-2.2-2-4.2-3.5-5.8c-1.5-1.7-3.5-3-5.8-4.1c-2.3-1-5-1.5-8.1-1.5c-2.1,0-4,0.2-5.8,0.5c-1.8,0.3-2.8,0.5-3,0.5
			c-0.9,0-1.6-0.2-2-0.6c-0.4-0.4-0.7-0.9-0.8-1.5c-0.1-0.6,0-1.1,0.3-1.6c0.3-0.5,0.9-0.8,1.7-0.9c4.6-0.5,8.4-1.3,11.4-2.4
			c3-1.1,5.3-2.5,7.2-4.2c1.8-1.6,3.1-3.5,3.8-5.6c0.7-2.1,1-4.2,1-6.6c0-1.8-0.3-3.5-1-5.1c-0.6-1.6-1.7-3-3.2-4.1
			c-1.5-1.2-3.4-2.1-5.8-2.8c-2.4-0.7-5.3-1-8.8-1c-3.7,0-6.8,0.4-9.5,1.2c-2.7,0.8-4.9,1.8-6.7,2.9c-1.8,1.2-3.1,2.3-4,3.5
			c-0.9,1.2-1.3,2.2-1.3,3c0,0.3,0.1,0.7,0.2,1.3c0.1,0.6,0.4,1.1,0.8,1.6c0.4,0.5,1.1,0.9,2.1,1.3c1,0.4,2.4,0.5,4.2,0.5
			c2.4,0,4.2,0.5,5.2,1.4c1,0.9,1.6,2,1.6,3.4c0,1.4-0.7,2.7-2.2,3.9c-1.5,1.2-3.7,1.8-6.6,1.8c-2.9,0-5.2-0.4-6.9-1.2
			c-1.8-0.8-3.2-1.8-4.2-2.9c-1-1.2-1.7-2.4-2.1-3.7c-0.4-1.3-0.6-2.4-0.6-3.4c0-2.6,0.9-5.2,2.7-7.6c1.8-2.4,4.2-4.5,7.3-6.2
			c3.1-1.8,6.6-3.2,10.7-4.2c4.1-1,8.4-1.6,12.9-1.6c4.3,0,8.5,0.4,12.5,1.2c4,0.8,7.5,1.9,10.5,3.5c3,1.5,5.5,3.4,7.3,5.7
			c1.9,2.2,2.8,4.8,2.8,7.6c0,4.5-2.1,8.2-6.2,11.1c-4.1,2.9-9.7,5.3-16.6,7.1c-0.3,0.1-0.5,0.2-0.5,0.5s0.2,0.3,0.6,0.3
			c10,0.7,17.3,3,21.9,6.8c4.6,3.8,6.9,8.5,6.9,14.1c0,4.3-1.3,7.9-3.9,10.8c-2.6,2.9-6,5.3-10.2,7.2c-4.2,1.8-9,3.2-14.4,4.1
			c-5.4,0.9-10.9,1.3-16.5,1.3c-3,0-6.2-0.1-9.7-0.4c-3.5-0.3-6.8-0.8-9.8-1.6c-3-0.8-5.5-2-7.4-3.5c-2-1.5-2.9-3.5-2.9-6
			c0-2,0.8-3.5,2.3-4.7c1.5-1.2,3.7-1.8,6.6-1.8c1.8,0,3.5,0.4,5.2,1.2c1.7,0.8,2.5,2.1,2.5,3.7c0,0.9-0.2,1.6-0.7,2
			c-0.5,0.5-0.7,1.1-0.7,1.8C125.2,420.1,125.7,421,126.8,421.6z M102.5,324.9c-6.3,0-11.4-5.8-11.4-13v-26.8
			c0-6.8,4.8-12.3,10.8-12.3h92.8c5.7,0,10.3,5.2,10.3,11.7v27.7c0,7-5,12.7-11.1,12.7H102.5z M41.6,59c0-6.4,4.6-11.5,10.2-11.5
			h43.8c5.4,0,9.7,5,9.7,11v182.4c0,6.5-4.7,11.8-10.4,11.8h-43c-5.7,0-10.3-5.3-10.3-11.7V59z M36.8,302.8
			c-6.2,0-12.1-2.8-16.5-7.8c-5-5.6-7.4-13.5-6.7-21.4c1.1-12.5,9.8-22.4,20.8-23.7c7-0.8,13.9,2,18.8,7.6c5,5.6,7.4,13.5,6.7,21.4
			c-1.1,12.5-9.8,22.4-20.8,23.7C38.3,302.7,37.5,302.8,36.8,302.8z M105.2,538.5c0,6.5-4.7,11.8-10.4,11.8H51.7
			c-5.6,0-10.1-5.2-10.1-11.5V356.2c0-6.1,4.4-11.1,9.8-11.1h43.9c5.5,0,10,5.1,10,11.4V538.5z M187.5,521.9c-2,3-4.7,5.3-8,7
			c-3.2,1.6-6.3,2.5-9.2,2.7c-0.9,0.1-1.5,0.2-1.6,0.5c-0.2,0.2-0.2,1.1-0.2,2.7v15.1c-1.4,0.2-2.7,0.4-4,0.5
			c-1.3,0.1-2.7,0.2-4.2,0.2c-1.7,0-3.2-0.1-4.5-0.2c-1.3-0.1-2.8-0.3-4.5-0.5v-17.4c0-0.8-0.1-1.2-0.4-1.4
			c-0.3-0.2-1.2-0.5-2.9-0.7c-4.6-0.7-10.1-1-16.5-1c-3.5,0-7.2,0.1-10.9,0.3c-3.7,0.2-7.5,0.7-11.2,1.3c-0.7,0.2-1.4,0.1-2-0.4
			c-0.6-0.4-1.2-1-1.5-1.6c-0.4-0.6-0.6-1.3-0.6-2c0-0.7,0.2-1.2,0.7-1.6c5.4-4.5,10.6-9.1,15.7-13.9c5.1-4.8,10-9.5,14.7-14.2
			c4.7-4.7,9.1-9.3,13.2-13.8c4.1-4.5,7.9-8.7,11.4-12.6c0.4-0.5,1-0.9,1.7-1.1c0.7-0.2,1.4-0.3,2.1-0.3c1,0,1.8,0.1,2.6,0.4
			c0.8,0.3,1.2,0.6,1.2,0.9v51.5c0,0.6,0.2,1,0.7,1c0.5,0.1,1.3,0.1,2.5,0.1c1,0,2-0.1,3.2-0.2c1.2-0.1,2.4-0.3,3.5-0.5
			c1.2-0.2,2.2-0.5,3.3-0.9c1-0.3,1.8-0.7,2.4-1.2c0.3-0.3,0.7-0.5,1.2-0.5c0.5,0,0.9,0,1.4,0.2c0.4,0.2,0.7,0.4,0.9,0.7
			C187.8,521.2,187.8,521.5,187.5,521.9z M250.1,538c0,6.8-4.9,12.4-10.9,12.4h-42.2c-5.8,0-10.6-5.4-10.6-12.1V357.3
			c0-6.8,4.8-12.2,10.8-12.2h42.5c5.7,0,10.4,5.3,10.4,11.8V538z M250.1,241.1c0,6.4-4.6,11.6-10.2,11.6h-43.3
			c-5.6,0-10.2-5.2-10.2-11.6V59.4c0-6.6,4.7-11.9,10.5-11.9h42.6c5.8,0,10.5,5.4,10.5,12V241.1z"/>
		<image width="117" height="134" xlink:href="55A8A35F.png"  transform="matrix(0.24 0 0 0.24 122.952 489.9386)">
		</image>
	</g>
</g>
<path fill="#FFFFFF" d="M36.7,256.8L36.7,256.8c4.2,0,8.2,1.9,11.2,5.4c3.7,4.2,5.5,10.1,5,16.2c-0.8,9.2-7,16.4-14.6,17.3
	c-0.5,0.1-1,0.1-1.6,0.1c-4.2,0-8.2-1.9-11.2-5.4c-3.7-4.2-5.5-10.1-5-16.2c0.8-9.2,7-16.4,14.6-17.3
	C35.7,256.8,36.2,256.8,36.7,256.8 M36.7,249.8c-0.8,0-1.6,0-2.4,0.1c-11,1.2-19.7,11.2-20.8,23.7c-0.7,8,1.7,15.8,6.7,21.4
	c4.4,5,10.3,7.8,16.5,7.8c0.8,0,1.6,0,2.4-0.1c11-1.2,19.7-11.2,20.8-23.7c0.7-8-1.7-15.8-6.7-21.4
	C48.8,252.5,42.9,249.8,36.7,249.8L36.7,249.8z"/>
<path fill="#FFFFFF" d="M36.7,263.8c2.8,0,4.8,1.6,6,3c2.5,2.8,3.6,6.8,3.3,11c-0.5,5.8-4.1,10.5-8.4,11c-0.3,0-0.5,0-0.8,0
	c-2.8,0-4.8-1.6-6-3c-2.5-2.8-3.6-6.8-3.3-11c0.5-5.8,4.1-10.5,8.4-11C36.2,263.8,36.5,263.8,36.7,263.8 M36.7,256.8
	c-0.5,0-1,0-1.6,0.1c-7.7,0.9-13.8,8.2-14.6,17.3c-0.5,6.1,1.3,12,5,16.2c3.1,3.5,7.1,5.4,11.2,5.4c0.5,0,1,0,1.6-0.1
	c7.7-0.9,13.8-8.2,14.6-17.3c0.5-6.1-1.3-12-5-16.2C44.9,258.7,40.9,256.8,36.7,256.8L36.7,256.8z"/>
</svg>
