<?xml version="1.0" encoding="utf-8"?>
<!-- Generator: Adobe Illustrator 21.0.2, SVG Export Plug-In . SVG Version: 6.00 Build 0)  -->
<svg version="1.1" id="Layer_1" xmlns="http://www.w3.org/2000/svg" xmlns:xlink="http://www.w3.org/1999/xlink" x="0px" y="0px"
	 viewBox="0 0 85.1 128.6" style="enable-background:new 0 0 85.1 128.6;" xml:space="preserve">
<style type="text/css">
	.st0{fill:none;stroke:#FF2F00;stroke-width:3;stroke-linecap:round;stroke-linejoin:round;stroke-miterlimit:10;}
	.st1{fill:none;stroke:#FF2F00;stroke-width:3;stroke-miterlimit:10;}
	.st2{fill:#FF2C00;}
	.st3{font-family:'GuruSans-Regular';}
	.st4{font-size:24px;}
	.st5{fill:none;stroke:#FF2C00;stroke-width:3;stroke-linecap:round;stroke-linejoin:round;stroke-miterlimit:10;}
</style>
<path class="st0" d="M40.9,6c-6.5,0.1-13.1,0.3-19.6,0.4c-3.1,0.1-6.1,0.1-9.2,0.3C9.8,6.9,7.6,6.6,6.9,9.1
	c-0.8,2.8-0.4,6.4-0.5,9.3c-0.1,3.4-0.2,6.7-0.2,10.1c-0.1,6.3,0.1,12.4,0.2,18.7c0.2,12.3,0.1,24.6,0,36.9
	c-0.1,6.6,0.1,13.2-0.1,19.8c-0.1,3.2-0.2,6.5-0.2,9.7c0,2.1-0.7,6.1,0.7,7.8c1.5,1.8,5.6,1.1,7.7,1.1c3.2,0,6.3-0.2,9.5-0.3
	c6.2,0,12.4,0.1,18.6,0c6.2-0.1,12.3-0.5,18.4-0.5c2.5,0,4.9,0.1,7.4,0.1c2.3,0,5.4,0.5,7.6-0.2c2.7-0.8,2.3-4.1,2.4-6.4
	c0.1-3.6,0.2-7.2,0.4-10.8c0.2-6.3,0.3-12.5,0.3-18.8c0-6.3-0.4-12.5-0.2-18.8c0.2-5.8,0.3-11.7-0.1-17.5c-0.5-7.1-0.3-14.1,0-21.2
	c0.1-3.2,0.2-6.4,0.2-9.6c0-3.1,0.6-6.8-0.6-9.8c-1.2-3-4.9-2.4-7.6-2.5c-3.2-0.1-6.4,0-9.7,0.1C54.4,6.5,47.7,5.9,40.9,6"/>
<path class="st0" d="M48.1,80.1c-0.4,2.9-0.3,3.3-0.3,4.8c-0.1,1.8,0,3.7,0,5.5c-0.1,3.8-0.3,7.5-0.2,11.3c0.1,3.1-0.2,6.5,0.2,9.6
	c0.5,3.2,5.8,2.2,8.5,2.1c2.1,0,4.1-0.2,6.2-0.2c1.5,0,3.7,0.3,5-0.3c1.5-0.7,1.1-2,1-3.2c-0.1-1.7-0.1-3.5-0.2-5.2
	c-0.1-3.8-0.1-7.6,0.1-11.3c0.1-4.1,1-8.4,0.7-12.5c-0.1-2.3-1.3-2.7-3.8-2.8c-2.3-0.1-1.8-0.1-6.9-0.1
	C53.4,77.7,48.5,77.2,48.1,80.1z"/>
<path class="st0" d="M15.9,80.1c-0.4,2.9-0.3,3.3-0.3,4.8c-0.1,1.8,0,3.7,0,5.5c-0.1,3.8-0.3,7.5-0.2,11.3c0.1,3.1-0.2,6.5,0.2,9.6
	c0.5,3.2,5.8,2.2,8.5,2.1c2.1,0,4.1-0.2,6.2-0.2c1.5,0,3.7,0.3,5-0.3c1.5-0.7,1.1-2,1-3.2c-0.1-1.7-0.1-3.5-0.2-5.2
	c-0.1-3.8-0.1-7.6,0.1-11.3c0.1-4.1,1-8.4,0.7-12.5c-0.1-2.3-1.3-2.7-3.8-2.8c-2.3-0.1-1.8-0.1-6.9-0.1
	C21.3,77.7,16.3,77.2,15.9,80.1z"/>
<path class="st0" d="M54.4,15.2c-4.4,0.4-7.7,0.3-7,5.8c0-0.1,0,0.4,0,0.3c0.5,4.2,0.3,8.5,0.2,12.7c-0.1,2.6-1.3,8.9,0.9,10.8
	c2.2,2,8.6,0.3,11.3,0.3c2.8,0,7.3,1.3,8.2-2.2c0.7-2.9-0.2-7.5-0.2-10.5c0-4.3-0.3-8.7-0.2-13c0.1-3.5-0.8-4.3-4.5-4.4
	C60.3,15,57.3,15,54.4,15.2z"/>
<path class="st0" d="M22.8,15.2c-4.4,0.4-7.7,0.3-7,5.8c0-0.1,0,0.4,0,0.3c0.5,4.2,0.3,8.5,0.2,12.7c-0.1,2.6-1.3,8.9,0.9,10.8
	c2.2,2,8.6,0.3,11.3,0.3c2.8,0,7.3,1.3,8.2-2.2c0.7-2.9-0.2-7.5-0.2-10.5c0-4.3-0.3-8.7-0.2-13c0.1-3.5-0.8-4.3-4.5-4.4
	C28.6,15,25.7,15,22.8,15.2z"/>
<path class="st1" d="M67.1,59c-3.8,1-1.8,7,1.9,6.2C73.4,64.2,71.3,57.9,67.1,59z"/>
<text transform="matrix(1 0 0 1 13.8704 71.5734)" class="st2 st3 st4">S55</text>
</svg>
