<?xml version="1.0" encoding="utf-8"?>
<!-- Generator: Adobe Illustrator 21.0.2, SVG Export Plug-In . SVG Version: 6.00 Build 0)  -->
<svg version="1.1" baseProfile="tiny" id="Layer_1" xmlns="http://www.w3.org/2000/svg" xmlns:xlink="http://www.w3.org/1999/xlink"
	 x="0px" y="0px" viewBox="0 0 289.8 598" xml:space="preserve">
	<path fill="#000000" d="M272.4,513.6c-1.7-5.9-6.5-9-6.5-9s3.8,13.7-15.1,23.6c-19,9.9-33.8,0.6-49.3,4.9
		c-15.6,4.3-23.6,24.2-24.8,39.6c-1.4,15.4-1.9,15.9-1.9,15.9s32.9,6.3,45.7-5.7c12.9-11.9,15.9-19,23.1-24.2
		c7.2-5.3,21-10.5,25.4-18.5C273.3,531.9,274.1,519.4,272.4,513.6z"/>
	<path fill="#000000" d="M83.1,533.1c-15.5-4.3-30.3,5-49.3-4.9c-18.9-9.9-15.1-23.6-15.1-23.6s-4.8,3.1-6.5,9
		c-1.7,5.8-0.9,18.3,3.4,26.5c4.3,8.1,18.2,13.2,25.4,18.5c7.2,5.2,10.2,12.3,23.1,24.2c12.9,11.9,45.7,5.7,45.7,5.7
		s-0.6-0.6-1.9-15.9C106.6,557.3,98.6,537.4,83.1,533.1z"/>
	<path fill="#000000" d="M41.7,317.9c0.3,0.2,0.7,0.4,1,0.7C42.8,318.6,42.4,318.3,41.7,317.9z"/>
	<path fill="#000000" d="M250,315.6c-0.6,0.4-1,0.7-1,0.7C249.3,316.1,249.6,315.8,250,315.6z"/>
	<path fill="#000000" d="M0,0v598l289.8-0.2V0H0z M5.7,593.2v-90.5h278.4v90.5H5.7z M19,70.5c-0.3-5.1-0.3-5,2.3-9.1
		c2.6-4.1,6.1-12.3,11.4-25.1c5.2-12.9,22.8-16,22.8-16s-4.8,7.1-5.5,9.4c-0.7,2.5-2.3,18.4,1.5,29c3.8,10.6,2.3,19.7-0.9,24.9
		c-3.2,5.2-9.1,7.2-14.2,13.4c-2.3,2.8-3.3,6.1-3.7,8.9H5.7V83.4c2.7-0.1,6.7-0.4,7.9-0.8C15.4,82,19.3,75.7,19,70.5z M216.3,51.9
		c0,0,0.2-0.7,0.6-1.8c1.6-0.2,3.6-0.3,5.5-0.1c3.9,0.3,13.8,5.9,16.3,13.1c2.5,7.2-3.3,8.2-2.4,13.9c0.5,3.1,2.5,16.5,6.9,29h-38.6
		c-0.9-4.7-1.7-9.8-1.2-13.1c0.5-3,1.3-5.9,2-8.5c0.1,1,0.2,2.2,0.3,3.4c0.3,6.3,5.8,12.3,5.8,12.3s2.7-19.5,2.8-22.2
		c0.1-2.7,5-8.3,5.1-14.8C219.6,56.5,216.3,51.9,216.3,51.9z M259.3,128.7c0,0-2.7-8.4-4.9-18.5h29.7V307h-63.8c0,0,0,0,0-0.1
		c0-0.6-0.2-1.1-0.5-1.6c-0.4-0.5-0.9-0.8-1.7-0.9c-1.8-0.3-3.5-0.6-5.1-0.9c-1.6-0.3-3.2-0.8-4.7-1.7c-1.5-0.8-3-2-4.5-3.6
		c-1.5-1.6-3-3.7-4.5-6.6c-1.9-3.5-3.9-7-5.9-10.7c5.6-1,12.8-1.8,17-1.1c1.8,0.2,4.2,1.6,6.8,3.3c0,3.9,0.6,6.7,1.6,10.4
		c1.4,4.8,6.6,11.8,6.6,11.8s2.2-5.6,2.2-14.6c4,3,7.6,5.7,10.1,6.4c6.4,2,15.2,1,23.8-3.4s12.3-12.3,13.4-16.8s0.7-8.8-0.3-12.9
		c-1-4.1-5-10.6-8.3-15.9c-3.3-5.3-3.3-10.6-4.9-14.2s-7.5-13.5-9.7-14.1c-2.1-0.6-6.2-4.8-7.8-10.1h16.8c-0.1,4.8-1.5,6.5-1.5,6.5
		c2-1.8,3.2-4,3.7-6.5h20v-4.2h-19.7c0-5.4-1.8-12.2-3.6-20.9c-2.8-14-19.8-26.6-27.1-30.6c0-0.6,0-1.1,0-1.8c0-8.1,2.7-13.5,0-16.3
		c-2.7-2.7,0.1-3.8-4.9-10c-5-6.3-20.3-7.9-20.3-7.9s-1-3.4-2.1-7.9h39.3C248.2,118.6,253,126.1,259.3,128.7z M254.3,317.4
		c0,5.3-3.1,13.3-3.1,13.3s-8.3-11-15.6-9.9c-6.3,1-24.4,2-32.4-0.4c0-1.3,0.1-2.6,0.3-3.9c0.2-1.6,0.5-3.1,1.1-4.6
		c0.1-0.2,0-0.3,0-0.4H258c-2.4,0.8-5.1,2.1-8.1,4.1C251.5,314.7,254.3,313.6,254.3,317.4z M221.2,405.9c0,0-20.1,10.2-32.7,36.8
		s6.8,6.8,12.9,3.4c3.1-1.8,6.7-1.4,10-0.8c-4.8,0.2-10.3,1.7-12.5,7.3c-3.7,9-14.6,11.2-12.7,24.9c-0.7-0.8-1.4-1.6-2.1-2.4
		c-3.2-3.6-6.5-7.1-9.9-10.4c-3.4-3.4-6.8-6.5-10.2-9.4c-3.4-2.9-6.7-5.4-9.8-7.6c-1.2-0.8-2-1.6-2.2-2.4c-0.3-0.8-0.1-1.4,0.6-2
		c2.5-2,5.1-4.2,7.9-6.5c2.8-2.4,5.5-4.8,8.2-7.3c2.7-2.5,5.3-5.1,7.9-7.6c2.6-2.6,5-5.1,7.2-7.4c1.5-1.7,2.9-3.1,4.2-4.1
		c1.2-1,2.6-1.8,4-2.4c1.4-0.6,3.1-1,4.9-1.3c1.8-0.3,4-0.6,6.6-0.8c0.4-0.1,0.7-0.2,1-0.4h15.6
		C220.7,405.6,221.2,405.9,221.2,405.9z M143.3,498.2c-0.1-0.1-0.1-0.2-0.2-0.3c-0.4-0.5-0.9-0.8-1.5-0.9c-3.6-0.3-6.5-0.6-8.6-1.1
		c-2.1-0.4-3.7-1.1-4.8-2.2c-1.1-1-1.7-2.5-2.1-4.4c-0.3-1.9-0.5-4.4-0.5-7.7V463c0-1.4,0.4-2.7,1.3-4c0.9-1.2,2.9-1.8,5.9-1.8
		c2.5,0,4.4,0.3,5.7,0.9c1.3,0.6,2.6,1.3,4,2.1c3,2.2,5.7,4.3,8.1,6.2c2.4,2,4.5,4,6.5,6.1c2,2.1,3.8,4.4,5.7,6.8
		c1.8,2.5,3.9,5.3,6.1,8.6c1.2,1.8,1.8,3.2,1.6,4.4c-0.1,1.1-0.7,2-1.6,2.7c-0.9,0.7-2.1,1.1-3.7,1.4c-1.5,0.3-3,0.4-4.5,0.5
		c-0.9,0-1.6,0.3-2,0.8c-0.1,0.1-0.2,0.3-0.3,0.4H143.3z M5.7,303.7c3.1-2.3,18.3-14,21-21.1c3.1-7.9,7.2-16.4,4-23.1
		c0,0-1.7-10.2,3.9-11.3c5.6-1,22.1-4.4,22.1-4.4s0.2,5.9,0.9,10.7c-0.1,0.2-0.2,0.3-0.2,0.6c-0.9,2.6-2.5,13.8-3,15.7
		c-0.5,1.9-3.1,9-2.2,12.7c0.9,3.8,3.2,4.2,3.2,4.2s-0.1-4,3.8-8s7.7-8.6,8.8-10.7c0.3-0.6,0.6-1.5,0.9-2.5
		c4.6,3.3,14.8,10.9,18.3,16c4.8,6.8,6.1,12.4,1.5,16.8c-3.9,3.8-14.8-5.2-17.5-7.2c-6-4.3-14-5.9-19.1-1.6
		c-5.8,4.9-3.5,11.8-1.6,16.3H5.7V303.7z M51.3,196.5c-1.3-6.4,1.1-11.3,1.5-15.5c0.3-4.2-2.4-8-2.4-8s2.6-6,5-10
		c2.5-4,11-6.6,11-6.6c10.4,10.7,15.4,15.9,16.3,23.7c0.4,3.5-6.4,14.7-13.2,25.4H53.3C52.6,202.6,51.9,199.2,51.3,196.5z
		 M40.1,110.1H63c-0.2,7.8-1.3,18.2-5,22.9c0,0,14.2-11.4,16.8-22.9h8.5c0,0,0,0.1,0,0.1c0,0.6,0.2,1.2,0.6,1.7
		c0.4,0.5,0.9,0.7,1.6,0.7c1.4,0.1,2.9,0.2,4.5,0.4c1.6,0.2,3.1,0.5,4.5,0.8c2.4,0.5,4.2,1.3,5.6,2.6c1.3,1.3,2.4,2.8,3.1,4.5
		c0.7,1.8,1.2,3.7,1.3,5.7c0.2,2.1,0.3,4.2,0.3,6.2v55c-1.3-0.6-2.6-0.9-3.9-0.6c0,0-12.9-14.2-19.5-23.9c-6.6-9.7-30-27-32.8-31.4
		c-2.7-4.3-8.1-14.1-8.5-19.2C40.1,112,40,111.1,40.1,110.1z M60.9,72.9c0,0,5.7,5.5,6,11.9c0.3,6.5,0,6.9,0,6.9s-4.3,4.4-4,10.1
		c0.1,1,0.1,2.4,0.1,4H41c1.3-3.3,4.3-7.3,10.9-13.2C63.6,82.3,60.9,72.9,60.9,72.9z M117.4,23.7c1.8-2,8.9-9.4,13.2-10.6
		c5-1.3,6.6,2,8.3,1.1c0,0,5.8,8.4,7.9,10.7c2,2.3-4.8,24.9-4.9,33C141.9,57.9,128,37.8,117.4,23.7z M130.3,54c0,0-17.3,1-22.5-5.2
		S93.6,32,89.5,29.7c-4.1-2.3-16-4.1-20.6-13.4c-0.3-0.7-0.7-1.4-1-2c3-1.7,9.9-5.3,14-5.3c5.2,0,13.5,0.3,19.2,5.8
		C106.8,20.1,130.3,54,130.3,54z M199.5,118.3c1.5,6.7,9.9,22.8,10.1,27.4c-1.7,6.5-10.7,6.8-20.7,20.2c-0.7-0.7-1.5-1.3-2.3-1.9
		c-5.8-4.1-13.8-7.3-24.1-9.3c-0.7-0.1-1.1-0.3-1.1-0.7c0-0.4,0.4-0.7,1.1-0.9c3.1-0.9,6.2-1.9,9-3.1c2.9-1.2,5.4-2.7,7.6-4.4
		c2.2-1.7,3.9-3.7,5.2-6c1.3-2.3,1.9-4.9,1.9-8c0-3.2-0.7-6.1-2.2-8.5c-1.4-2.4-3.4-4.5-5.8-6.3c-2.4-1.8-5.2-3.2-8.5-4.4
		c-2.8-1-5.6-1.8-8.6-2.4h37.1C198.6,113.5,199,116.3,199.5,118.3z M243.7,220.7c1,1.9,0.1,2-9.2,7.6c-9.3,5.5-5.3,23.4-5.3,23.4
		s-0.8,1.4-1.9,2c-1.1,0.7-5.1,5.7-5.7,10.4c-0.6,4.4-3,8.3-3.8,14c-6.5-3.1-10.1-3.1-11.7-3.2c-2.6-0.1-9.8,1.5-9.8,1.5
		s-1.5-5.9-5.6-6.5c-1.1-0.2-2.2,0-3.1,0.3c-0.9-1.8-1.9-3.5-2.8-5.3c1.4-1.5,2.6-3.6,2.7-6.5c0.2-6.7-7.7-7.6-5.6-17
		c2.2-9.4,19.8-20,22-26.7c0.5-1.7,0.7-3.4,0.4-5.1h34.3C238.9,215.9,242.8,219.2,243.7,220.7z M234.4,255.2c0,0,0.2-2.4,0.3-4.4
		c0.1-3.4,0.1-3.8-0.5-7.4c-0.5-2.7-0.3-7.7,1.7-12.3s7.7-3.8,7.7-3.8s1.9,0.9,5.1,2.5c3.2,1.6,6.6,5.9,8,11.8
		c1.4,6,11.9,17.1,14.2,27.5c2.3,10.6-19.7,33.6-36.6,19.3c-1.9-1.6-3.9-3.1-5.6-4.3c1.6-6.9,5.3-13.7,6.1-18.9
		C236,258.6,234.4,255.2,234.4,255.2z M54.9,307c-0.1-0.2-0.2-0.3-0.3-0.5c-1.3-2-2.8-6.7-2.2-9.9c0.7-3.2,4.7-4.6,9.4-3.8
		c4.5,0.8,12.1,9.1,19.7,11.5l-0.3,0c-0.8,0.1-1.4,0.4-1.8,0.8c-0.4,0.4-0.5,0.9-0.5,1.4c0,0.1,0,0.3,0,0.4H54.9z M155,313.1
		c9.4,0,17.4,1.4,24.1,4.3v19.9c0,0,15.6,16.3,26.2,22c0,0-13.3,4.2-20.1,2.6c-6.8-1.6-10.6,3.1-10.6,3.1s9.1,10.2,13.7,14.5
		c2.6,2.4,2.5,5.7,3.8,9c-1.9,2-4.2,3.9-6.7,5.5c-3.4,2.1-7.6,3.6-12.6,4.4c-5,0.8-10.6,1.2-16.9,1.2c-8.1,0-15.1-1.3-20.8-4
		c-5.7-2.6-10.3-6.1-13.9-10.3c-3.5-4.2-6-8.8-7.6-13.9c2.1-2.4,3.7-4.1,3.7-4.1s-1.9-2.3-5.4-3.1c-0.5-2.9-0.7-5.9-0.7-8.8
		c0-4.8,0.7-9.6,2-14.6c1.3-5,3.6-9.5,7-13.6c3.3-4.1,7.8-7.4,13.5-10C139.2,314.4,146.3,313.1,155,313.1z M185.7,400.7
		c1.2-0.4,2.5-0.9,3.7-1.4c1.7-0.6,3.3-1,4.7-1c1.4,0,2.6,0.3,3.7,0.8c0.9,0.4,1.6,1,2.2,1.6H185.7z M92.8,397.9
		c4.3-2.1,6-4.7,6.9-7.3c0.9,0.8,1.9,1.6,2.9,2.4c4.4,3.2,9.7,5.8,15.8,7.8H87C89,399.8,91,398.8,92.8,397.9z M125.6,423.5
		c0-3.4,0.1-6.2,0.4-8.3c0.3-2.2,1-3.9,2.2-5.3c1.2-1.3,2.9-2.3,5.2-3c2.3-0.7,5.5-1.1,9.6-1.3c0.4,0,0.8-0.1,1.1-0.4h5.1
		c1.7,0,3.5,0.1,5.3,0.1c1.6,0,3.2,0,4.7-0.1c0.4,0.2,0.8,0.3,1.3,0.4c2.4,0.2,4.4,0.4,6.2,0.8c1.8,0.3,3.1,0.8,3.9,1.6
		c0.9,0.7,1.2,1.7,1,2.9c-0.2,1.2-1.1,2.9-2.7,5c-3.4,4.4-8.3,9.6-14.9,15.7c-6.5,6.1-14.5,12.7-24.1,19.9c-0.8,0.6-1.8,0.8-2.8,0.7
		c-1-0.1-1.5-0.6-1.5-1.4V423.5z M198.6,311.8c-0.6,1.8-2,2.7-4.1,2.7c-0.9,0-2-0.2-3.2-0.6c-1.2-0.4-2.6-0.8-4-1.3
		c-1-0.3-2-0.7-3-1h14.5C198.7,311.6,198.6,311.7,198.6,311.8z M159.7,307c-1.2,0-2.4-0.1-3.6-0.1c-1.5,0-3,0-4.5,0.1h-25
		c0-0.1,0-0.1,0-0.2c0-0.6-0.2-1.1-0.6-1.6c-0.4-0.5-1.1-0.8-2-0.8c-1.9-0.1-3.8-0.3-5.7-0.5c-1.9-0.3-3.5-0.7-5-1.2
		c-1.4-0.5-2.6-1.2-3.5-2.1c-0.9-0.9-1.3-1.9-1.3-3.2c0-0.7,0.4-1.8,1.1-3.4l8.8-17.3c0.6-1.1,1.4-1.9,2.2-2.3
		c0.8-0.4,2.1-0.6,3.9-0.6h19.2c-0.1,1.6-1.6,3.2-2.4,4.1c-1.3,1.4-3.4,9.1-3.4,9.1c3.8-7.7,8.9-6.5,8.9-13c0-0.1,0-0.1,0-0.2h12.4
		c2.2,5.9,9.3,9.1,11.8,10c0.3,0.5,0.5,1,0.8,1.5c-0.9,8,3.6,13.2,4.4,14c-0.4,1.6-1.4,2.7-3,3.3c-2.1,0.8-5.3,1.4-9.8,1.8
		c-1,0.1-1.6,0.4-2,0.8s-0.6,0.9-0.6,1.5c0,0.1,0,0.2,0,0.3H159.7z M189.7,196.2c0.3,0.4,0.6,0.8,0.9,1.1c2.2,2.6,4.9,4.8,6.6,8.2
		h-27c4.2-0.8,8.1-2,11.5-3.6C184.8,200.4,187.5,198.5,189.7,196.2z M165.4,195.8c-3.7,3.2-10.1,4.8-19.2,4.8
		c-4.4,0-7.9-0.2-10.5-0.6c-2.6-0.4-4.6-1.3-6-2.9c-1.4-1.5-2.3-3.8-2.7-6.8c-0.4-3-0.7-7.2-0.7-12.4v-13.6c0-2.5,0.4-4.1,1.2-4.8
		c0.8-0.7,2.5-1.1,5.3-1.1h3.7c4.7,0,9.2,0.3,13.4,0.9c4.2,0.6,7.8,1.8,11,3.5c3.1,1.7,5.6,4,7.4,7c1.8,2.9,2.7,6.8,2.7,11.5
		C170.9,187.8,169.1,192.7,165.4,195.8z M155.9,148.5c-2.6,1.4-5.8,2.4-9.4,3c-3.6,0.5-7.6,0.8-11.9,0.8h-3.7c-2,0-3.3-0.3-3.8-0.9
		c-0.6-0.6-0.9-1.6-0.9-2.9v-27.6c0-1.2,0-2.2,0.1-3.1c0.1-0.9,0.3-1.6,0.6-2.1c0.3-0.5,0.8-0.9,1.5-1.2c0.7-0.2,1.6-0.4,2.9-0.4
		h6.7c4.2,0,8,0.3,11.3,1c3.3,0.7,6.1,1.8,8.3,3.3c2.2,1.5,3.9,3.4,5,5.8c1.2,2.4,1.7,5.2,1.7,8.6c0,3.9-0.8,7.2-2.3,9.7
		C160.6,145.1,158.6,147.1,155.9,148.5z M198.4,209.7c0.2,1,0.2,2.2,0.2,3.4c-0.2,8.5-21.3,15.5-21.5,28.2
		c-0.3,12.7,7.2,13.4,6.9,17.4c-0.1,1.2-0.4,2.4-0.8,3.6c-2.4-4.4-4.7-8.9-7.1-13.3c-3.9-7.4-7.7-14.7-11.5-21.8
		c-3.2-6.2-6.3-12-9.2-17.5H198.4z M143.3,268c-3.2-2.4-7.3-3.5-7.3-3.5s-2.8-6,6-9.1c6.9-2.4,11.8,5.5,15,12.6H143.3z M162.2,267.3
		c-0.1,0.1-0.3,0.2-0.5,0.3c-2.1-3.8-4.7-8.7-7.9-12.3c-4.9-5.6-17.7-5.1-22.1,3c-2.6,4.9,0.2,7.8,3.7,9.7h-8.6
		c-1.5,0-2.5-0.2-3-0.6c-0.5-0.4-0.4-1.2,0.2-2.5l18-34.3c0.3-0.5,0.8-0.8,1.5-0.8c0.8,0,1.3,0.3,1.5,0.8l17.2,34.3
		C162.9,266.1,162.9,266.9,162.2,267.3z M243.7,205.5c0.6-1.4,2-2.2,2.9-5c1.5-4.7,9.4-13.7,9.4-13.7c2.8,8.2,4.1,14.2,4.5,18.7
		H243.7z M238.8,205.5H203c-1.5-3.6-4.2-7.2-7-10.7c-1-1.2-1.9-2.6-2.7-3.9c1.2-2.7,1.8-5.8,1.8-9.4c0-3.9-0.8-7.3-2.3-10.3
		c5-8.8,23-19.5,23-19.5c2.3,1.3,4.4,2.4,6.5,3.5c-0.1,1-0.2,2-0.5,3c-1.1,5-3.4,6.1-4.9,10.6s-1.1,13.5-0.6,15.1
		c0,0,3.5-10.6,8.6-15.1c3.1-2.7,5.1-5.1,6.3-8.3c16.5,9.9,18.9,14.8,20.5,20.3C253.8,187.2,240.9,197.4,238.8,205.5z M223.7,141.7
		c-0.5,1.3-0.6,4-0.7,6.9c-3.4-1.9-6.3-4-6.3-4s-7.6-15.1-8.2-20.5c0,0,17.4,4.1,18,10C227.1,140.1,224.7,139.2,223.7,141.7z
		 M88.7,181.7l5.9,8.4c0,0-1.6,5.1,0,8c0.3,0.6,1.1,1.6,2.2,2.9c-0.6,0.2-1.2,0.3-1.8,0.5c-2.3,0.5-5,0.9-8.2,1.2
		c-0.8,0-1.3,0.3-1.7,0.8c-0.4,0.5-0.5,1-0.5,1.6c0,0.2,0,0.3,0,0.5h-9.2C80.8,197.8,88.3,186.3,88.7,181.7z M103.1,209.7
		c2.4,4.1,4.4,8.8,4.6,14c0,0,4.8-6.9,6.2-14h31.4l-43.1,81c-1.4,2.6-2.8,4.7-4,6.3c-1.3,1.6-2.6,2.9-4,3.8c-0.3,0.2-0.7,0.4-1,0.6
		c5-5.8,2.2-14.8,0.8-17.3c-1.5-2.6-5.5-8.5-10.9-13.2c-3.1-2.6-9.4-7.5-13-10.2c0.1-1.3,0.2-2.5,0.2-3.5c-0.1-3.8-2.6-6.6-2.6-6.6
		s2.3-7.6,2.6-10.5c0.2-2.8,1.8-13.4,0-27.2c0,0,0.9-1.2,2.3-3.2H103.1z M61.2,230.7c0.6-1.7,5.5-11.2,5.5-11.2s0.5,14.3,0,18.4
		c-0.5,4.2-2.8,12.3-2.8,12.3s-0.2,0.1-0.6,0.2C62.4,244.5,60.8,232.1,61.2,230.7z M5.7,311.5h46c0,2.2-1.5,2.6-5,5.1
		c-3.9,2.8-4,8.3-4,8.3c0.8-2.4,2.7-3.8,4.8-5.7c2-1.9,5.5-1.6,7.2-4.3c0.7-1,1-2.2,1.1-3.4h67.3c-5.4,1.7-10.3,3.9-14.7,6.5
		l-7.2-1.6c0,0-4.6,1.5-10.2,5.2c-5.7,3.8-27.8,2.6-34.9,1.5c-7.3-1.1-15.6,9.9-15.6,9.9s-3.1-8-3.1-13.3c0-3.8,2.8-2.7,4.3-1.8
		c-15.2-10-22.2-3-27.4,0.7c-5.3,3.8,0.3,10.6-3,13.7C8.1,335.3,9,343.6,9,343.6l-3.3,2.8V311.5z M77,405.3h7.1
		c0.4,0.3,0.8,0.4,1.3,0.4c4,0.2,7.3,0.7,9.7,1.4c2.4,0.7,4.3,1.8,5.6,3.2c1.3,1.4,2.2,3.2,2.6,5.3c0.4,2.2,0.7,4.8,0.7,7.9v23.4
		c-0.3-0.6-0.6-1.3-0.9-2c-12.5-26.5-32.7-36.8-32.7-36.8S73.2,407,77,405.3z M90.3,448.3c3.1,1.8,9.8,7.9,13.8,9.7v11.7
		c-2.9-5.7-8.8-8.6-11.3-14.9c-2.2-5.6-7.7-7.1-12.5-7.3C83.7,446.9,87.2,446.5,90.3,448.3z M104,486c-0.1,1.3-0.3,2.4-0.5,3.4
		c-0.4,1.7-1.3,3.1-2.5,4.1c0.7-1.4,1.4-3.1,2.2-5.3C103.5,487.4,103.7,486.7,104,486z M207.3,400.7c0-0.4-0.1-0.7-0.1-1.1
		c0.8,0.4,1.6,0.8,2.4,1.1H207.3z M210.9,51c-0.3,0.2-4,4.7-4.1,9.2c-0.1,3,0.5,4.8,0.1,7.3c-2.4,3.3-5.9,9-7.5,16.2
		c-1.5,6.7-1.8,15.1-1.4,22.3h-55.3c-0.4-2.9-0.9-6.6-0.5-8.2c0.6-3,8.5-20.5,14.8-24.3c0,0,8.4-0.9,13.4-3.9
		c5-3.1,8.9-8.5,14.5-11.7c5.5-3.2,18.1-12.3,18.1-12.3s-10-2.7-13.9-1.6c-3.8,1.1-8.8,5.3-12.9,6.9s-8.5,0.1-12.6,2.8
		c-4.1,2.7-7.5,11.2-8,12.3s-6,4.7-7.7,7.5c-1.6,2.8-3.4,6.1-3.4,6.1s3-18,3.4-20.7c0.5-2.7,2.8-17.3,4.4-20
		c0.5-0.8,0.8-2.5,0.8-4.6c3.1-3.6,8.5-9.9,12.7-13.9c6.1-5.8,12.5-8,23.7-9c11.2-1,16.6,5,16.6,5c0.5,4.4,5.6,9.2,8.3,16.5
		C217.2,40.3,211.3,50.7,210.9,51z M166.9,8.5c-5,2.4-12.6,9.6-16.2,13c-0.2-0.5-0.5-0.8-0.7-1.1c-3.2-4.7-7.9-8.4-8.9-11.5
		c0,0-1.3-4.6-12.6-2C118.9,9,117,20,116.6,23.3c-4.7-6.3-8.6-11.2-10.4-12.5c-2.3-1.9-5.2-3.7-8.5-5.1h76.8
		C171.8,6.5,169.1,7.5,166.9,8.5z M64.9,9.6C64,8,63.2,6.7,62.6,5.7h12C70.1,7.1,66.5,8.7,64.9,9.6z M66.9,29.7
		c8.4,12.9,14.3,18.2,19.5,19.1c5.1,0.9,12.1,0,12.1,0s4.1,6.1,6.6,7.9s4.9,3.9,11.7,4c6.8,0.1,13.8-1,16.3,1.5s6.4,4.3,6.6,8.5
		c0.2,4.2-3,20.4-3,24.9s-0.3,7.2-0.3,7.2l0,3.2h-61C75.5,94.6,72,90.1,72,90.1s0.3-11.9-3.3-15.7c-3.6-3.8-8.1-7.4-8.1-7.4
		s-5.6-14.9-5.5-21.2c0.1-6.3-0.3-13.2,2.6-17.3c1.7-2.4,3.5-5.6,4.8-7.9C63.5,23.7,65,26.7,66.9,29.7z M5.7,110.1h26.7
		c0,1,0.1,1.6,0.1,1.6s-7.4,7.4-15.4,15.9s-4.4,18-2,23.1c2.5,5.1,1.3,9.3,6.6,13.3c5.3,4,6.6,12.1,6.6,12.1
		c0.9-2.2,1.7-7.4,0.8-11.9s-4-6.4-4.9-7.5c-0.9-1.1-1-4.2-2-7.2c-1-3-1.8-9.4,0.9-18c2.6-8.6,11.5-11.5,11.5-11.5
		c0.7,12.1,26.5,33.2,26.5,33.2s-7.2,3.8-10.7,6.5c-3.4,2.7-4.7,11.7-4.7,11.7s-5.1,3.4-4.6,17.4c0.3,6.7,3.5,12.5,6.7,16.6H5.7
		V110.1z M51.7,209.7c1.9,1.8,3.3,2.8,3.3,2.8s-0.3-1.1-0.7-2.8h12.5c-5.7,8.7-10.7,16.3-11,18c-0.7,4.1,0,10.9,0,10.9l-13,1.8
		c-21.4,1.8-17.9,18.9-17.9,18.9c-6.7,0.6-6.1,8.4-7.3,14.6c-1.1,6.1-2.2,7.4-8.1,15.1c-2.1,2.7-3.2,5.4-3.9,7.7v-87H51.7z
		 M5.7,453.5c1.8,3.2,5.3,8.6,11.8,16.8c11.7,14.8,41,17.9,41,17.9c-1.8-3.8-2.6-10.2-2.6-10.2s2.3,1.5,10.2,8.3
		c8,6.8,18.2-2.7,24.2,0.3c2.7,1.3,3.9,6.2,5.2,9.1c-0.2,0-0.4,0.1-0.5,0.1c-2.4,0.5-5.7,0.8-9.7,1.1c-0.8,0.1-1.4,0.4-1.8,0.9
		c-0.1,0.1-0.1,0.2-0.2,0.3H5.7V453.5z M217.5,498.2c-0.1-0.1-0.1-0.2-0.2-0.3c-0.4-0.5-1-0.8-1.7-0.9c-5.5-0.4-9.9-1.5-13.2-3.3
		c-1.7-0.9-3.3-2.1-4.9-3.5c0.9-2.4,2.1-5,3.9-5.9c6-3.1,16.3,6.5,24.2-0.3c8-6.8,10.2-8.3,10.2-8.3s-0.8,6.5-2.6,10.2
		c0,0,29.2-3.1,41-17.9c4.7-5.9,7.8-10.5,9.9-13.8v44H217.5z M282.7,341.3c0,0,0.9-8.3-2.4-11.4c-3.3-3.1,2.4-9.9-3-13.7
		c-2.1-1.5-4.5-3.5-7.7-4.8h14.4v31L282.7,341.3z M284.1,105.9h-30.6c-0.6-3.2-1.2-6.4-1.6-9.6c-1.8-14.8-1-18.4-3.6-21.6
		c0,0-4.6-15.9-7.1-19.6c-1.8-2.6-5.9-9.6-22.6-10.7c1.6-5.3,3.4-11.9,3.2-13.9c-0.5-3.4-5.2-8.2-7.2-10.9s-1.8-5.1-1.8-5.1
		c13.5,0.6,25,9.8,25,9.8c1,6.9,6.6,13.1,9.6,16c3,3,5.6,10.4,9,14.6c3.4,4.2,13.5,3.3,13.5,3.3s-4.3-5.5-7.3-7.7
		c-3-2.3-5.2-8.6-6.4-13.1c-1.1-4.4-3.3-10.7-6.3-14.1c-3-3.4-7.7-2.7-7.7-2.7S223.5,9.1,218.3,8c-2.1-0.5-5.5-1.4-9.4-2.3h75.2
		V105.9z M60.5,5.7c-0.1,1.5-0.1,3.4,0.1,5.7c-2.2,0.8-7.9,2.7-13.1,3.4c-6.7,0.9-9,4.1-15.5,8.9s-16.6,36-18.2,40.2
		s0.6,6.7-0.5,11.9c-0.7,3.5-4.9,5.7-7.7,6.9V5.7H60.5z M5.7,597.8h209.1H5.7L5.7,597.8z"/>
</svg>
