<?xml version="1.0" encoding="utf-8"?>
<!-- Generator: Adobe Illustrator 21.0.2, SVG Export Plug-In . SVG Version: 6.00 Build 0)  -->
<svg version="1.1" baseProfile="tiny" id="Layer_1" xmlns="http://www.w3.org/2000/svg" xmlns:xlink="http://www.w3.org/1999/xlink"
	 x="0px" y="0px" viewBox="0 0 289.8 597.8" overflow="scroll" xml:space="preserve">
<path fill="#FFFFFF" d="M0,5.1v595.3h289.8V5.1H0z M246.8,36.5c-6.3,1-12.1,3.3-17.7,5.5c-7.3,2.9-14.1,5.6-21.9,5.6
	c-6.9,0-13-2.1-19.3-4.6c6.3-1,12.1-3.3,17.7-5.5c6.3-2.5,12.4-4.9,19-5.5h5.7C236.1,32.5,241.4,34.4,246.8,36.5z M103.7,551.6
	c-0.7,0-1.4,0-2.1-0.1c-3.1-0.9-6.4-1.6-9.8-1.9c-2.3-0.7-4.5-1.5-6.8-2.4c6-1,11.6-3.2,17-5.4c7.3-2.9,14.1-5.6,21.9-5.6
	c6.7,0,12.6,2,18.7,4.3c-6,1-11.6,3.2-17,5.4C118.4,548.9,111.5,551.6,103.7,551.6z M108.7,560.2c-5.8,1.1-11.2,3.2-16.5,5.3
	c-7.3,2.9-14.1,5.6-21.9,5.6c-7.2,0-13.5-2.3-20.1-4.9c5.8-1.1,11.2-3.2,16.5-5.3c7.3-2.9,14.1-5.6,21.9-5.6c0.7,0,1.4,0,2.1,0.1
	c3.1,0.9,6.4,1.6,9.8,1.9C103.3,558.1,106,559.1,108.7,560.2z M166.2,532c3.5-1.4,6.8-2.7,10.3-3.7c0.3-0.1,0.7-0.2,1-0.3
	c3.4-1,6.9-1.6,10.6-1.6c7.2,0,13.5,2.3,20.1,4.9c-5.8,1.1-11.2,3.2-16.5,5.3c-7.3,2.9-14.1,5.6-21.9,5.6c-7.2,0-13.5-2.3-20.1-4.9
	C155.6,536.2,161,534,166.2,532z M142.2,532.2c-7.8,0-14.7-2.7-21.9-5.6c-5.3-2.1-10.7-4.2-16.6-5.3c4.8-1.7,9.5-2.9,14.7-2.9
	c7.8,0,14.7,2.7,21.9,5.6c5.3,2.1,10.7,4.2,16.6,5.3C152.2,531,147.4,532.2,142.2,532.2z M186.3,518.6c-3.5,1.4-6.8,2.7-10.3,3.7
	c-0.3,0.1-0.7,0.2-1,0.3c-3.4,1-6.9,1.6-10.6,1.6c-6.9,0-13-2.1-19.3-4.5c6.3-1,12-3.3,17.6-5.5c7.3-2.9,14.1-5.6,21.9-5.6
	c6.9,0,13,2.1,19.3,4.5C197.6,514.1,191.9,516.4,186.3,518.6z M160.6,508.8c-7.3,2.9-14.1,5.6-21.9,5.6c-7.2,0-13.5-2.3-20.1-4.9
	c5.8-1.1,11.2-3.2,16.5-5.3c7.3-2.9,14.1-5.6,21.9-5.6c0.7,0,1.4,0,2.1,0.1c3.1,0.9,6.4,1.6,9.8,1.9c2.7,0.8,5.4,1.8,8.2,2.9
	C171.2,504.6,165.9,506.7,160.6,508.8z M172,495c-0.7,0-1.4,0-2.1-0.1c-3.1-0.9-6.4-1.6-9.8-1.9c-3.3-1-6.6-2.3-10-3.6
	c-0.2-0.1-0.4-0.2-0.6-0.3c7.6-0.6,14.4-3.3,21-5.9c7.3-2.9,14.1-5.6,21.9-5.6c7.8,0,14.7,2.7,21.9,5.6c0.2,0.1,0.4,0.2,0.6,0.3
	c-7.6,0.6-14.4,3.3-21,5.9C186.7,492.3,179.8,495,172,495z M168.3,477.9c-7.3,2.9-14.1,5.6-21.9,5.6c-7.2,0-13.5-2.3-20.1-4.9
	c5.8-1.1,11.2-3.2,16.5-5.3c7.3-2.9,14.1-5.6,21.9-5.6c7.2,0,13.5,2.3,20.1,4.9C178.9,473.7,173.6,475.8,168.3,477.9z M118.7,473.5
	c-7.8,0-14.7-2.7-21.9-5.6c-5-2-10.1-4-15.6-5.1c6.9-2.7,13.5-5.2,21-5.2c7.8,0,14.7,2.7,21.9,5.6c5,2,10.1,4,15.6,5.1
	C132.8,471,126.2,473.5,118.7,473.5z M148.1,463.4c-7.8,0-14.7-2.7-21.9-5.6c-0.2-0.1-0.4-0.2-0.6-0.2c7.6-0.6,14.4-3.3,21-5.9
	c7.3-2.9,14.1-5.6,21.9-5.6s14.7,2.7,21.9,5.6c0.2,0.1,0.4,0.2,0.6,0.2c-7.6,0.6-14.4,3.3-21,5.9C162.8,460.7,156,463.4,148.1,463.4
	z M144.4,446.3c-7.3,2.9-14.1,5.6-21.9,5.6c-7.2,0-13.5-2.3-20.1-4.9c5.8-1.1,11.2-3.2,16.5-5.3c7.3-2.9,14.1-5.6,21.9-5.6
	c0.7,0,1.4,0,2.1,0.1c3.1,0.9,6.4,1.6,9.8,1.9c2.7,0.8,5.4,1.8,8.2,2.9C155.1,442.1,149.7,444.2,144.4,446.3z M155.9,432.5
	c-0.7,0-1.4,0-2.1-0.1c-3.1-0.9-6.4-1.6-9.8-1.9c-3.3-1-6.6-2.3-10-3.6c-0.2-0.1-0.4-0.2-0.6-0.3c7.6-0.6,14.4-3.3,21-5.9
	c7.3-2.9,14.1-5.6,21.9-5.6c7.8,0,14.7,2.7,21.9,5.6c0.2,0.1,0.4,0.2,0.6,0.3c-7.6,0.6-14.4,3.3-21,5.9
	C170.5,429.7,163.7,432.5,155.9,432.5z M126.6,410.8c7.3-2.9,14.1-5.6,21.9-5.6c7.2,0,13.5,2.3,20.1,4.9c-5.8,1.1-11.2,3.2-16.5,5.3
	c-7.3,2.9-14.1,5.6-21.9,5.6c-7.2,0-13.5-2.3-20.1-4.9C116,415,121.4,412.9,126.6,410.8z M102.6,411c-6.9,0-13-2.1-19.3-4.6
	c6.3-1,12.1-3.3,17.7-5.5c7.3-2.9,14.1-5.6,21.9-5.6c6.9,0,13,2.1,19.3,4.6c-6.3,1-12.1,3.3-17.7,5.5
	C117.2,408.3,110.4,411,102.6,411z M146.9,395.6c-0.2-0.1-0.4-0.2-0.6-0.2c7.6-0.6,14.4-3.3,21-5.9c7.3-2.9,14.1-5.6,21.9-5.6
	c7.8,0,14.7,2.7,21.9,5.6c0.2,0.1,0.4,0.2,0.6,0.2c-7.6,0.6-14.4,3.3-21,5.9c-7.3,2.9-14.1,5.6-21.9,5.6
	C161,401.2,154.2,398.5,146.9,395.6z M165.1,384.1c-7.3,2.9-14.1,5.6-21.9,5.6c-7.2,0-13.5-2.3-20.1-4.9c5.8-1.1,11.2-3.2,16.5-5.3
	c7.3-2.9,14.1-5.6,21.9-5.6c0.7,0,1.4,0,2.1,0.1c3.1,0.9,6.4,1.6,9.8,1.9c2.7,0.8,5.4,1.8,8.2,2.9
	C175.8,379.9,170.4,382,165.1,384.1z M115.5,379.7c-7.3,0-13.8-2.4-20.5-5c4.8-1.2,9.3-2.9,13.7-4.7c7.3-2.9,14.1-5.6,21.9-5.6
	c7.3,0,13.8,2.4,20.5,5c-4.8,1.2-9.3,2.9-13.7,4.7C130.2,377,123.4,379.7,115.5,379.7z M176.5,370.2c-0.7,0-1.4,0-2.1-0.1
	c-3.1-0.9-6.4-1.6-9.8-1.9c-3.3-1-6.6-2.3-10-3.6c-0.2-0.1-0.4-0.2-0.6-0.2c7.6-0.6,14.4-3.3,21-5.9c7.3-2.9,14.1-5.6,21.9-5.6
	c7.8,0,14.7,2.7,21.9,5.6c0.2,0.1,0.4,0.2,0.6,0.2c-7.6,0.6-14.4,3.3-21,5.9C191.2,367.5,184.4,370.2,176.5,370.2z M172.9,353.1
	c-7.3,2.9-14.1,5.6-21.9,5.6c-7.2,0-13.5-2.3-20.1-4.9c5.8-1.1,11.2-3.2,16.5-5.3c7.3-2.9,14.1-5.6,21.9-5.6
	c7.2,0,13.5,2.3,20.1,4.9C183.5,348.9,178.1,351,172.9,353.1z M145.2,343.2c-7.3,2.9-14.1,5.6-21.9,5.6c-5.1,0-9.8-1.2-14.5-2.8
	c6.3-1,12-3.3,17.5-5.5c7.3-2.9,14.1-5.6,21.9-5.6c5.1,0,9.8,1.2,14.5,2.8C156.4,338.7,150.7,341,145.2,343.2z M102.3,340.8
	c-5.7,0-10.9-1.5-16.2-3.4c5.9-1.1,11.3-3.2,16.5-5.3c7.3-2.9,14.1-5.6,21.9-5.6c5.7,0,10.9,1.5,16.2,3.4
	c-5.9,1.1-11.3,3.2-16.5,5.3C116.9,338,110.1,340.8,102.3,340.8z M142.8,322.4c-7.3,0-13.8-2.4-20.5-5c4.8-1.2,9.3-2.9,13.6-4.7
	c7.3-2.9,14.1-5.6,21.9-5.6c7.3,0,13.8,2.4,20.5,5c-4.8,1.2-9.3,2.9-13.6,4.7C157.5,319.7,150.6,322.4,142.8,322.4z M133.8,307.3
	c-7.3,2.9-14.1,5.6-21.9,5.6c-0.7,0-1.4,0-2.1-0.1c-3.1-0.9-6.4-1.6-9.8-1.9c-3.3-1-6.6-2.3-10-3.6c-1.5-0.6-3-1.2-4.6-1.8
	c4.4-1.2,8.6-2.8,12.7-4.4c7.3-2.9,14.1-5.6,21.9-5.6c7.8,0,14.7,2.7,21.9,5.6c1.5,0.6,3,1.2,4.6,1.8
	C142.1,304,137.9,305.7,133.8,307.3z M128.6,285.9c-5-2-10.1-4-15.6-5.1c6.9-2.7,13.5-5.2,21-5.2c7.8,0,14.7,2.7,21.9,5.6
	c5,2,10.1,4,15.6,5.1c-6.9,2.7-13.5,5.2-21,5.2C142.7,291.4,135.9,288.7,128.6,285.9z M154.3,269.8c-7.2,0-13.5-2.3-20.1-4.9
	c5.8-1.1,11.2-3.2,16.5-5.3c7.3-2.9,14.1-5.6,21.9-5.6c0.7,0,1.4,0,2.1,0.1c3.1,0.9,6.4,1.6,9.8,1.9c2.7,0.8,5.4,1.8,8.2,2.9
	c-5.8,1.1-11.2,3.2-16.5,5.3C169,267.1,162.2,269.8,154.3,269.8z M148.6,254.3c-7.3,2.9-14.1,5.6-21.9,5.6c-7.3,0-13.8-2.4-20.5-5
	c4.8-1.2,9.3-2.9,13.6-4.7c7.3-2.9,14.1-5.6,21.9-5.6c7.3,0,13.8,2.4,20.5,5C157.5,250.8,153,252.5,148.6,254.3z M162.1,238.9
	c-7.2,0-13.5-2.3-20.1-4.9c5.8-1.1,11.2-3.2,16.5-5.3c7.3-2.9,14.1-5.6,21.9-5.6c7.2,0,13.5,2.3,20.1,4.9
	c-5.8,1.1-11.2,3.2-16.5,5.3C176.7,236.1,169.9,238.9,162.1,238.9z M156.3,223.3c-7.3,2.9-14.1,5.6-21.9,5.6c-6.9,0-13-2.1-19.3-4.6
	c6.3-1,12.1-3.3,17.7-5.5c7.3-2.9,14.1-5.6,21.9-5.6c6.9,0,13,2.1,19.3,4.6C167.7,218.8,161.9,221.1,156.3,223.3z M108.7,219.1
	c-7.8,0-14.7-2.7-21.9-5.6c-0.2-0.1-0.4-0.2-0.6-0.2c7.6-0.6,14.4-3.3,21-5.9c7.3-2.9,14.1-5.6,21.9-5.6c7.8,0,14.7,2.7,21.9,5.6
	c0.2,0.1,0.4,0.2,0.6,0.2c-7.6,0.6-14.4,3.3-21,5.9C123.4,216.4,116.5,219.1,108.7,219.1z M147.3,197.6c-7.3,0-13.8-2.4-20.5-5
	c4.8-1.2,9.3-2.9,13.7-4.7c7.3-2.9,14.1-5.6,21.9-5.6c7.3,0,13.8,2.4,20.5,5c-4.8,1.2-9.3,2.9-13.7,4.7
	C162,194.9,155.2,197.6,147.3,197.6z M116.4,188.1c-0.7,0-1.4,0-2.1-0.1c-3.1-0.9-6.4-1.6-9.8-1.9c-2.3-0.7-4.5-1.5-6.8-2.4
	c6-1,11.6-3.2,17-5.4c7.3-2.9,14.1-5.6,21.9-5.6c6.7,0,12.6,2,18.7,4.3c-6,1-11.6,3.2-17,5.4C131.1,185.4,124.2,188.1,116.4,188.1z
	 M154.9,168.7c-7.8,0-14.7-2.7-21.9-5.6c-5.3-2.1-10.7-4.2-16.6-5.3c4.8-1.7,9.5-2.9,14.7-2.9c7.8,0,14.7,2.7,21.9,5.6
	c5.3,2.1,10.7,4.2,16.6,5.3C164.9,167.5,160.1,168.7,154.9,168.7z M151.4,150.9c-7.2,0-13.5-2.3-20.1-4.9c5.8-1.1,11.2-3.2,16.5-5.3
	c7.3-2.9,14.1-5.6,21.9-5.6c0.7,0,1.4,0,2.1,0.1c3.1,0.9,6.4,1.6,9.8,1.9c2.7,0.8,5.4,1.8,8.2,2.9c-5.8,1.1-11.2,3.2-16.5,5.3
	C166.1,148.2,159.2,150.9,151.4,150.9z M123.7,141c-7.3,0-13.8-2.4-20.5-5c4.8-1.2,9.3-2.9,13.7-4.7c7.3-2.9,14.1-5.6,21.9-5.6
	c7.3,0,13.8,2.4,20.5,5c-4.8,1.2-9.3,2.9-13.7,4.7C138.4,138.3,131.6,141,123.7,141z M184.7,131.5c-0.7,0-1.4,0-2.1-0.1
	c-3.1-0.9-6.4-1.6-9.8-1.9c-3.3-1-6.6-2.3-10-3.6c-0.2-0.1-0.4-0.2-0.6-0.2c7.6-0.6,14.4-3.3,21-5.9c7.3-2.9,14.1-5.6,21.9-5.6
	c7.8,0,14.7,2.7,21.9,5.6c0.2,0.1,0.4,0.2,0.6,0.2c-7.6,0.6-14.4,3.3-21,5.9C199.4,128.8,192.6,131.5,184.7,131.5z M181.1,114.4
	c-7.3,2.9-14.1,5.6-21.9,5.6c-7.2,0-13.5-2.3-20.1-4.9c5.8-1.1,11.2-3.2,16.5-5.3c7.3-2.9,14.1-5.6,21.9-5.6
	c7.2,0,13.5,2.3,20.1,4.9C191.7,110.2,186.3,112.3,181.1,114.4z M131.5,110.1c-7.8,0-14.7-2.7-21.9-5.6c-5-2-10.1-4-15.6-5.1
	c6.9-2.7,13.5-5.2,21-5.2c7.8,0,14.7,2.7,21.9,5.6c5,2,10.1,4,15.6,5.1C145.5,107.6,138.9,110.1,131.5,110.1z M160.9,99.9
	c-7.8,0-14.7-2.7-21.9-5.6c-0.2-0.1-0.4-0.2-0.6-0.3c7.6-0.6,14.4-3.3,21-5.9c7.3-2.9,14.1-5.6,21.9-5.6s14.7,2.7,21.9,5.6
	c0.2,0.1,0.4,0.2,0.6,0.3c-7.6,0.6-14.4,3.3-21,5.9C175.5,97.2,168.7,99.9,160.9,99.9z M157.2,82.8c-7.3,2.9-14.1,5.6-21.9,5.6
	c-7.2,0-13.5-2.3-20.1-4.9c5.8-1.1,11.2-3.2,16.5-5.3c7.3-2.9,14.1-5.6,21.9-5.6c0.7,0,1.4,0,2.1,0.1c3.1,0.9,6.4,1.6,9.8,1.9
	c2.7,0.8,5.4,1.8,8.2,2.9C167.8,78.7,162.4,80.8,157.2,82.8z M168.6,69c-0.7,0-1.4,0-2.1-0.1c-3.1-0.9-6.4-1.6-9.8-1.9
	c-3.3-1-6.6-2.3-10-3.6c-0.2-0.1-0.4-0.2-0.6-0.2c7.6-0.6,14.4-3.3,21-5.9c7.3-2.9,14.1-5.6,21.9-5.6c7.8,0,14.7,2.7,21.9,5.6
	c0.2,0.1,0.4,0.2,0.6,0.2c-7.6,0.6-14.4,3.3-21,5.9C183.2,66.3,176.4,69,168.6,69z M143,57.5c-7.2,0-13.5-2.3-20.1-4.9
	c5.8-1.1,11.2-3.2,16.5-5.3c7.3-2.9,14.1-5.6,21.9-5.6c7.2,0,13.5,2.3,20.1,4.9c-5.8,1.1-11.2,3.2-16.5,5.3
	C157.6,54.8,150.8,57.5,143,57.5z M159.6,32.1c-0.1,0-0.1-0.1-0.2-0.1h44.2c-0.1,0-0.1,0.1-0.2,0.1c-7.3,2.9-14.1,5.6-21.9,5.6
	C173.7,37.7,166.9,35,159.6,32.1z M154.9,36.5c-6.3,1-12.1,3.3-17.7,5.5c-7.3,2.9-14.1,5.6-21.9,5.6c-6.9,0-13-2.1-19.3-4.6
	c6.3-1,12.1-3.3,17.7-5.5c6.3-2.5,12.4-4.9,19-5.5h5.7C144.1,32.5,149.5,34.4,154.9,36.5z M111.5,32.1c-7.3,2.9-14.1,5.6-21.9,5.6
	c-7.8,0-14.7-2.7-21.9-5.6c-0.1,0-0.1-0.1-0.2-0.1h44.2C111.7,32.1,111.6,32.1,111.5,32.1z M69.3,41.8c7.2,0,13.5,2.3,20.1,4.9
	c-5.8,1.1-11.2,3.2-16.5,5.3c-7.3,2.9-14.1,5.6-21.9,5.6c-7.2,0-13.5-2.3-20.1-4.9c5.8-1.1,11.2-3.2,16.5-5.3
	C54.7,44.5,61.5,41.8,69.3,41.8z M75.1,57.3c7.3-2.9,14.1-5.6,21.9-5.6c7.8,0,14.7,2.7,21.9,5.6c0.2,0.1,0.4,0.2,0.6,0.2
	c-7.6,0.6-14.4,3.3-21,5.9C91.3,66.3,84.5,69,76.6,69c-0.7,0-1.4,0-2.1-0.1c-3.1-0.9-6.4-1.6-9.8-1.9c-3.3-1-6.6-2.3-10-3.6
	c-0.2-0.1-0.4-0.2-0.6-0.2C61.7,62.6,68.5,59.9,75.1,57.3z M100.7,68.8c7.3-2.9,14.1-5.6,21.9-5.6c7.3,0,13.8,2.4,20.5,5
	c-4.8,1.2-9.3,2.9-13.7,4.7c-7.3,2.9-14.1,5.6-21.9,5.6c-7.3,0-13.8-2.4-20.5-5C91.8,72.3,96.3,70.5,100.7,68.8z M89.3,82.6
	c7.8,0,14.7,2.7,21.9,5.6c0.2,0.1,0.4,0.2,0.6,0.3c-7.6,0.6-14.4,3.3-21,5.9c-7.3,2.9-14.1,5.6-21.9,5.6c-7.8,0-14.7-2.7-21.9-5.6
	c-0.2-0.1-0.4-0.2-0.6-0.3c7.6-0.6,14.4-3.3,21-5.9C74.6,85.4,81.5,82.6,89.3,82.6z M85.5,104.3c7.2,0,13.5,2.3,20.1,4.9
	c-5.8,1.1-11.2,3.2-16.5,5.3c-7.3,2.9-14.1,5.6-21.9,5.6c-7.2,0-13.5-2.3-20.1-4.9c5.8-1.1,11.2-3.2,16.5-5.3
	C70.8,107,77.7,104.3,85.5,104.3z M91.3,119.8c7.3-2.9,14.1-5.6,21.9-5.6c7.8,0,14.7,2.7,21.9,5.6c0.2,0.1,0.4,0.2,0.6,0.2
	c-7.6,0.6-14.4,3.3-21,5.9c-7.3,2.9-14.1,5.6-21.9,5.6c-0.7,0-1.4,0-2.1-0.1c-3.1-0.9-6.4-1.6-9.8-1.9c-3.3-1-6.6-2.3-10-3.6
	c-0.2-0.1-0.4-0.2-0.6-0.2C77.9,125.1,84.7,122.4,91.3,119.8z M77.8,135.2c0.7,0,1.4,0,2.1,0.1c3.1,0.9,6.4,1.6,9.8,1.9
	c2.7,0.8,5.4,1.8,8.2,2.9c-5.8,1.1-11.2,3.2-16.5,5.3c-7.3,2.9-14.1,5.6-21.9,5.6c-7.2,0-13.5-2.3-20.1-4.9
	c5.8-1.1,11.2-3.2,16.5-5.3C63.1,137.9,70,135.2,77.8,135.2z M83.5,150.7c7.3-2.9,14.1-5.6,21.9-5.6c6.9,0,13,2.1,19.3,4.5
	c-6.3,1-12,3.3-17.6,5.5c-3.5,1.4-6.8,2.7-10.3,3.7c-0.3,0.1-0.7,0.2-1,0.3c-3.4,0.9-6.9,1.6-10.6,1.6c-6.9,0-13-2.1-19.3-4.5
	C72.2,155.2,77.9,153,83.5,150.7z M87,168.5c3.5-1.4,6.8-2.7,10.3-3.7c0.4-0.1,0.7-0.2,1-0.3c3.4-0.9,6.9-1.6,10.6-1.6
	c7.2,0,13.5,2.3,20.1,4.9c-5.8,1.1-11.2,3.2-16.5,5.3c-7.3,2.9-14.1,5.6-21.9,5.6c-7.2,0-13.5-2.3-20.1-4.9
	C76.4,172.7,81.8,170.6,87,168.5z M91,187.4c-4.8,1.2-9.3,2.9-13.7,4.7c-7.3,2.9-14.1,5.6-21.9,5.6c-7.3,0-13.8-2.4-20.5-5
	c4.8-1.2,9.3-2.9,13.7-4.7c7.3-2.9,14.1-5.6,21.9-5.6C77.8,182.3,84.2,184.7,91,187.4z M79.5,197.4c7.3-2.9,14.1-5.6,21.9-5.6
	c0.7,0,1.4,0,2.1,0.1c3.1,0.9,6.4,1.6,9.8,1.9c2.7,0.8,5.4,1.8,8.2,2.9c-5.8,1.1-11.2,3.2-16.5,5.3c-7.3,2.9-14.1,5.6-21.9,5.6
	c-7.2,0-13.5-2.3-20.1-4.9C68.8,201.6,74.2,199.5,79.5,197.4z M88.4,223.1c7.2,0,13.5,2.3,20.1,4.9c-5.8,1.1-11.2,3.2-16.5,5.3
	c-7.3,2.9-14.1,5.6-21.9,5.6c-7.2,0-13.5-2.3-20.1-4.9c5.8-1.1,11.2-3.2,16.5-5.3C73.7,225.9,80.6,223.1,88.4,223.1z M94.2,238.7
	c7.3-2.9,14.1-5.6,21.9-5.6c7.8,0,14.7,2.7,21.9,5.6c0.2,0.1,0.4,0.2,0.6,0.3c-7.6,0.6-14.4,3.3-21,5.9c-7.3,2.9-14.1,5.6-21.9,5.6
	c-0.7,0-1.4,0-2.1-0.1c-3.1-0.9-6.4-1.6-9.8-1.9c-3.3-1-6.6-2.3-10-3.6c-0.2-0.1-0.4-0.2-0.6-0.3C80.8,243.9,87.6,241.3,94.2,238.7z
	 M80.7,254.1c0.7,0,1.4,0,2.1,0.1c3.1,0.9,6.4,1.6,9.8,1.9c2.7,0.8,5.4,1.8,8.2,2.9c-5.8,1.1-11.2,3.2-16.5,5.3
	c-7.3,2.9-14.1,5.6-21.9,5.6c-7.2,0-13.5-2.3-20.1-4.9c5.8-1.1,11.2-3.2,16.5-5.3C66,256.8,72.9,254.1,80.7,254.1z M86.5,269.6
	c7.3-2.9,14.1-5.6,21.9-5.6c7.8,0,14.7,2.7,21.9,5.6c0.2,0.1,0.4,0.2,0.6,0.2c-7.6,0.6-14.4,3.3-21,5.9c-7.3,2.9-14.1,5.6-21.9,5.6
	c-7.8,0-14.7-2.7-21.9-5.6c-0.2-0.1-0.4-0.2-0.6-0.2C73.1,274.9,79.9,272.2,86.5,269.6z M104.6,285.7c6.5,0,12.3,1.9,18.3,4.2
	c-0.9-0.1-1.8-0.1-2.8-0.1c-8.9,0-16.6,3-24.1,6c-7.3,2.9-14.1,5.6-21.9,5.6c-6.5,0-12.3-1.9-18.3-4.2c0.9,0.1,1.8,0.1,2.8,0.1
	c8.9,0,16.6-3,24.1-6C89.9,288.4,96.8,285.7,104.6,285.7z M65.9,307.1c7.3,0,13.8,2.4,20.5,5c-4.8,1.2-9.3,2.9-13.6,4.7
	c-7.3,2.9-14.1,5.6-21.9,5.6c-7.3,0-13.8-2.4-20.5-5c4.8-1.2,9.3-2.9,13.6-4.7C51.3,309.8,58.1,307.1,65.9,307.1z M74.9,322.2
	c7.3-2.9,14.1-5.6,21.9-5.6c0.7,0,1.4,0,2.1,0.1c3.1,0.9,6.4,1.6,9.8,1.9c2.7,0.8,5.4,1.8,8.2,2.9c-5.8,1.1-11.2,3.2-16.5,5.3
	c-7.3,2.9-14.1,5.6-21.9,5.6c-7.2,0-13.5-2.3-20.1-4.9C64.3,326.4,69.7,324.3,74.9,322.2z M97.4,347.9c-5.8,1.1-11.2,3.2-16.5,5.3
	c-7.3,2.9-14.1,5.6-21.9,5.6c-7.2,0-13.5-2.3-20.1-4.9c5.8-1.1,11.2-3.2,16.5-5.3c7.3-2.9,14.1-5.6,21.9-5.6
	C84.4,343,90.8,345.3,97.4,347.9z M83.1,358.5c7.3-2.9,14.1-5.6,21.9-5.6c7.8,0,14.7,2.7,21.9,5.6c0.2,0.1,0.4,0.2,0.6,0.2
	c-7.6,0.6-14.4,3.3-21,5.9c-7.3,2.9-14.1,5.6-21.9,5.6c-0.7,0-1.4,0-2.1-0.1c-3.1-0.9-6.4-1.6-9.8-1.9c-3.3-1-6.6-2.3-10-3.6
	c-0.2-0.1-0.4-0.2-0.6-0.2C69.7,363.8,76.5,361.1,83.1,358.5z M69.6,373.9c0.7,0,1.4,0,2.1,0.1c3.1,0.9,6.4,1.6,9.8,1.9
	c2.7,0.8,5.4,1.8,8.2,2.9c-5.8,1.1-11.2,3.2-16.5,5.3c-7.3,2.9-14.1,5.6-21.9,5.6c-7.2,0-13.5-2.3-20.1-4.9
	c5.8-1.1,11.2-3.2,16.5-5.3C54.9,376.7,61.8,373.9,69.6,373.9z M75.3,389.5c7.3-2.9,14.1-5.6,21.9-5.6c7.8,0,14.7,2.7,21.9,5.6
	c0.2,0.1,0.4,0.2,0.6,0.2c-7.6,0.6-14.4,3.3-21,5.9c-7.3,2.9-14.1,5.6-21.9,5.6c-7.8,0-14.7-2.7-21.9-5.6c-0.2-0.1-0.4-0.2-0.6-0.2
	C62,394.7,68.8,392.1,75.3,389.5z M84.3,415.2c7.8,0,14.7,2.7,21.9,5.6c0.2,0.1,0.4,0.2,0.6,0.3c-7.6,0.6-14.4,3.3-21,5.9
	c-7.3,2.9-14.1,5.6-21.9,5.6c-0.7,0-1.4,0-2.1-0.1c-3.1-0.9-6.4-1.6-9.8-1.9c-3.3-1-6.6-2.3-10-3.6c-0.2-0.1-0.4-0.2-0.6-0.3
	c7.6-0.6,14.4-3.3,21-5.9C69.6,417.9,76.5,415.2,84.3,415.2z M88,432.3c7.3-2.9,14.1-5.6,21.9-5.6c7.3,0,13.8,2.4,20.5,5
	c-4.8,1.2-9.3,2.9-13.6,4.7c-7.3,2.9-14.1,5.6-21.9,5.6c-7.3,0-13.8-2.4-20.5-5C79.1,435.8,83.6,434,88,432.3z M76.6,446.1
	c7.8,0,14.7,2.7,21.9,5.6c0.2,0.1,0.4,0.2,0.6,0.2c-7.6,0.6-14.4,3.3-21,5.9c-7.3,2.9-14.1,5.6-21.9,5.6c-7.8,0-14.7-2.7-21.9-5.6
	c-0.2-0.1-0.4-0.2-0.6-0.2c7.6-0.6,14.4-3.3,21-5.9C61.9,448.8,68.8,446.1,76.6,446.1z M72.8,467.7c7.2,0,13.5,2.3,20.1,4.9
	c-5.8,1.1-11.2,3.2-16.5,5.3c-7.3,2.9-14.1,5.6-21.9,5.6c-7.2,0-13.5-2.3-20.1-4.9c5.8-1.1,11.2-3.2,16.5-5.3
	C58.1,470.5,64.9,467.7,72.8,467.7z M78.5,483.3c7.3-2.9,14.1-5.6,21.9-5.6c7.8,0,14.7,2.7,21.9,5.6c0.2,0.1,0.4,0.2,0.6,0.3
	c-7.6,0.6-14.4,3.3-21,5.9c-7.3,2.9-14.1,5.6-21.9,5.6c-0.7,0-1.4,0-2.1-0.1c-3.1-0.9-6.4-1.6-9.8-1.9c-3.3-1-6.6-2.3-10-3.6
	c-0.2-0.1-0.4-0.2-0.6-0.3C65.2,488.5,72,485.9,78.5,483.3z M104.1,494.8c7.3-2.9,14.1-5.6,21.9-5.6c7.3,0,13.8,2.4,20.5,5
	c-4.8,1.2-9.3,2.9-13.7,4.7c-7.3,2.9-14.1,5.6-21.9,5.6c-7.3,0-13.8-2.4-20.5-5C95.3,498.3,99.7,496.5,104.1,494.8z M92.7,508.6
	c6.9,0,13,2.1,19.3,4.5c-6.3,1-12,3.3-17.6,5.5c-3.5,1.4-6.8,2.7-10.3,3.7c-0.3,0.1-0.7,0.2-1,0.3c-3.4,1-6.9,1.6-10.6,1.6
	c-6.9,0-13-2.1-19.3-4.5c6.3-1,12-3.3,17.6-5.5C78.1,511.3,84.9,508.6,92.7,508.6z M74.3,532c3.5-1.4,6.8-2.7,10.3-3.7
	c0.3-0.1,0.7-0.2,1-0.3c3.4-1,6.9-1.6,10.6-1.6c7.2,0,13.5,2.3,20.1,4.9c-5.8,1.1-11.2,3.2-16.5,5.3c-7.3,2.9-14.1,5.6-21.9,5.6
	c-7.2,0-13.5-2.3-20.1-4.9C63.7,536.2,69.1,534,74.3,532z M127.7,551.4c7.3-2.9,14.1-5.6,21.9-5.6c7.3,0,13.8,2.4,20.5,5
	c-4.8,1.2-9.3,2.9-13.6,4.7c-7.3,2.9-14.1,5.6-21.9,5.6c-7.3,0-13.8-2.4-20.5-5C118.9,554.9,123.3,553.1,127.7,551.4z M158.7,560.9
	c7.3-2.9,14.1-5.6,21.9-5.6c0.7,0,1.4,0,2.1,0.1c3.1,0.9,6.4,1.6,9.8,1.9c2.7,0.8,5.4,1.8,8.2,2.9c-5.8,1.1-11.2,3.2-16.5,5.3
	c-7.3,2.9-14.1,5.6-21.9,5.6c-7.2,0-13.5-2.3-20.1-4.9C148.1,565.1,153.4,563,158.7,560.9z M195.6,551.6c-0.7,0-1.4,0-2.1-0.1
	c-3.1-0.9-6.4-1.6-9.8-1.9c-2.3-0.7-4.5-1.5-6.8-2.4c6-1,11.6-3.2,17-5.4c7.3-2.9,14.1-5.6,21.9-5.6c6.7,0,12.6,2,18.7,4.3
	c-6,1-11.6,3.2-17,5.4C210.3,548.9,203.4,551.6,195.6,551.6z M234.1,532.2c-7.8,0-14.7-2.7-21.9-5.6c-5.3-2.1-10.7-4.2-16.6-5.3
	c4.8-1.7,9.5-2.9,14.7-2.9c7.8,0,14.7,2.7,21.9,5.6c5.3,2.1,10.7,4.2,16.6,5.3C244.1,531,239.3,532.2,234.1,532.2z M202.9,504.5
	c-7.3,0-13.8-2.4-20.5-5c4.8-1.2,9.3-2.9,13.7-4.7c7.3-2.9,14.1-5.6,21.9-5.6c7.3,0,13.8,2.4,20.5,5c-4.8,1.2-9.3,2.9-13.6,4.7
	C217.6,501.8,210.8,504.5,202.9,504.5z M210.7,473.5c-7.8,0-14.7-2.7-21.9-5.6c-5-2-10.1-4-15.6-5.1c6.9-2.7,13.5-5.2,21-5.2
	c7.8,0,14.7,2.7,21.9,5.6c5,2,10.1,4,15.6,5.1C224.7,471,218.1,473.5,210.7,473.5z M214.5,451.9c-7.2,0-13.5-2.3-20.1-4.9
	c5.8-1.1,11.2-3.2,16.5-5.3c7.3-2.9,14.1-5.6,21.9-5.6c0.7,0,1.4,0,2.1,0.1c3.1,0.9,6.4,1.6,9.8,1.9c2.7,0.8,5.4,1.8,8.2,2.9
	c-5.8,1.1-11.2,3.2-16.5,5.3C229.1,449.2,222.3,451.9,214.5,451.9z M208.7,436.4c-7.3,2.9-14.1,5.6-21.9,5.6c-7.3,0-13.8-2.4-20.5-5
	c4.8-1.2,9.3-2.9,13.6-4.7c7.3-2.9,14.1-5.6,21.9-5.6c7.3,0,13.8,2.4,20.5,5C217.6,432.9,213.1,434.6,208.7,436.4z M222.2,421
	c-7.2,0-13.5-2.3-20.1-4.9c5.8-1.1,11.2-3.2,16.5-5.3c7.3-2.9,14.1-5.6,21.9-5.6c7.2,0,13.5,2.3,20.1,4.9
	c-5.8,1.1-11.2,3.2-16.5,5.3C236.8,418.2,230,421,222.2,421z M216.4,405.4c-7.3,2.9-14.1,5.6-21.9,5.6c-6.9,0-13-2.1-19.3-4.6
	c6.3-1,12.1-3.3,17.7-5.5c7.3-2.9,14.1-5.6,21.9-5.6c6.9,0,13,2.1,19.3,4.6C227.8,400.9,222,403.2,216.4,405.4z M207.5,379.7
	c-7.3,0-13.8-2.4-20.5-5c4.8-1.2,9.3-2.9,13.7-4.7c7.3-2.9,14.1-5.6,21.9-5.6c7.3,0,13.8,2.4,20.5,5c-4.8,1.2-9.3,2.9-13.7,4.7
	C222.1,377,215.3,379.7,207.5,379.7z M215.2,348.8c-5.1,0-9.8-1.2-14.5-2.8c6.3-1,12-3.3,17.5-5.5c7.3-2.9,14.1-5.6,21.9-5.6
	c5.1,0,9.8,1.2,14.5,2.8c-6.3,1-12,3.3-17.5,5.5C229.8,346.1,223,348.8,215.2,348.8z M216.1,335.2c-7.3,2.9-14.1,5.6-21.9,5.6
	c-5.7,0-10.9-1.5-16.2-3.4c5.9-1.1,11.3-3.2,16.5-5.3c7.3-2.9,14.1-5.6,21.9-5.6c5.7,0,10.9,1.5,16.2,3.4
	C226.8,331,221.4,333.1,216.1,335.2z M192.4,326.7c-7.3,2.9-14.1,5.6-21.9,5.6c-7.2,0-13.5-2.3-20.1-4.9c5.8-1.1,11.2-3.2,16.5-5.3
	c7.3-2.9,14.1-5.6,21.9-5.6c0.7,0,1.4,0,2.1,0.1c3.1,0.9,6.4,1.6,9.8,1.9c2.7,0.8,5.4,1.8,8.2,2.9
	C203,322.5,197.7,324.6,192.4,326.7z M203.8,312.9c-0.7,0-1.4,0-2.1-0.1c-3.1-0.9-6.4-1.6-9.8-1.9c-3.3-1-6.6-2.3-10-3.6
	c-1.5-0.6-3-1.2-4.6-1.8c4.4-1.2,8.6-2.8,12.7-4.4c7.3-2.9,14.1-5.6,21.9-5.6c7.8,0,14.7,2.7,21.9,5.6c1.5,0.6,3,1.2,4.6,1.8
	c-4.4,1.2-8.6,2.8-12.7,4.4C218.5,310.2,211.6,312.9,203.8,312.9z M212,289.7c-8.9,0-16.6,3-24.1,6c-7.3,2.9-14.1,5.6-21.9,5.6
	c-6.5,0-12.3-1.9-18.3-4.2c0.9,0.1,1.8,0.1,2.8,0.1c8.9,0,16.6-3,24.1-6c7.3-2.9,14.1-5.6,21.9-5.6c6.5,0,12.3,1.9,18.3,4.2
	C213.9,289.8,212.9,289.7,212,289.7z M179.9,281.3c-7.8,0-14.7-2.7-21.9-5.6c-0.2-0.1-0.4-0.2-0.6-0.2c7.6-0.6,14.4-3.3,21-5.9
	c7.3-2.9,14.1-5.6,21.9-5.6c7.8,0,14.7,2.7,21.9,5.6c0.2,0.1,0.4,0.2,0.6,0.2c-7.6,0.6-14.4,3.3-21,5.9
	C194.6,278.6,187.8,281.3,179.9,281.3z M218.6,259.9c-7.3,0-13.8-2.4-20.5-5c4.8-1.2,9.3-2.9,13.6-4.7c7.3-2.9,14.1-5.6,21.9-5.6
	c7.3,0,13.8,2.4,20.5,5c-4.8,1.2-9.3,2.9-13.6,4.7C233.3,257.2,226.4,259.9,218.6,259.9z M209.6,244.8c-7.3,2.9-14.1,5.6-21.9,5.6
	c-0.7,0-1.4,0-2.1-0.1c-3.1-0.9-6.4-1.6-9.8-1.9c-3.3-1-6.6-2.3-10-3.6c-0.2-0.1-0.4-0.2-0.6-0.3c7.6-0.6,14.4-3.3,21-5.9
	c7.3-2.9,14.1-5.6,21.9-5.6c7.8,0,14.7,2.7,21.9,5.6c0.2,0.1,0.4,0.2,0.6,0.3C222.9,239.5,216.1,242.2,209.6,244.8z M178.7,213.5
	c-0.2-0.1-0.4-0.2-0.6-0.2c7.6-0.6,14.4-3.3,21-5.9c7.3-2.9,14.1-5.6,21.9-5.6c7.8,0,14.7,2.7,21.9,5.6c0.2,0.1,0.4,0.2,0.6,0.2
	c-7.6,0.6-14.4,3.3-21,5.9c-7.3,2.9-14.1,5.6-21.9,5.6C192.8,219.1,186,216.4,178.7,213.5z M196.9,202c-7.3,2.9-14.1,5.6-21.9,5.6
	c-7.2,0-13.5-2.3-20.1-4.9c5.8-1.1,11.2-3.2,16.5-5.3c7.3-2.9,14.1-5.6,21.9-5.6c0.7,0,1.4,0,2.1,0.1c3.1,0.9,6.4,1.6,9.8,1.9
	c2.7,0.8,5.4,1.8,8.2,2.9C207.6,197.8,202.2,199.9,196.9,202z M208.3,188.1c-0.7,0-1.4,0-2.1-0.1c-3.1-0.9-6.4-1.6-9.8-1.9
	c-2.3-0.7-4.5-1.5-6.8-2.4c6-1,11.6-3.2,17-5.4c7.3-2.9,14.1-5.6,21.9-5.6c6.7,0,12.6,2,18.7,4.3c-6,1-11.6,3.2-17,5.4
	C223,185.4,216.2,188.1,208.3,188.1z M204.5,173c-7.3,2.9-14.1,5.6-21.9,5.6c-7.2,0-13.5-2.3-20.1-4.9c5.8-1.1,11.2-3.2,16.5-5.3
	c3.5-1.4,6.8-2.7,10.3-3.7c0.4-0.1,0.7-0.2,1.1-0.3c3.4-0.9,6.9-1.6,10.6-1.6c7.2,0,13.5,2.3,20.1,4.9
	C215.1,168.9,209.7,171,204.5,173z M199,155.2c-3.5,1.4-6.8,2.7-10.2,3.7c-0.4,0.1-0.7,0.2-1.1,0.3c-3.4,0.9-6.9,1.6-10.6,1.6
	c-6.9,0-13-2.1-19.3-4.5c6.3-1,12-3.3,17.6-5.5c7.3-2.9,14.1-5.6,21.9-5.6c6.9,0,13,2.1,19.3,4.5C210.3,150.7,204.6,153,199,155.2z
	 M215.7,141c-7.3,0-13.8-2.4-20.5-5c4.8-1.2,9.3-2.9,13.7-4.7c7.3-2.9,14.1-5.6,21.9-5.6c7.3,0,13.8,2.4,20.5,5
	c-4.8,1.2-9.3,2.9-13.7,4.7C230.3,138.3,223.5,141,215.7,141z M223.4,110.1c-7.8,0-14.7-2.7-21.9-5.6c-5-2-10.1-4-15.6-5.1
	c6.9-2.7,13.5-5.2,21-5.2c7.8,0,14.7,2.7,21.9,5.6c5,2,10.1,4,15.6,5.1C237.5,107.6,230.9,110.1,223.4,110.1z M199.5,78.5
	c-7.3,0-13.8-2.4-20.5-5c4.8-1.2,9.3-2.9,13.7-4.7c7.3-2.9,14.1-5.6,21.9-5.6c7.3,0,13.8,2.4,20.5,5c-4.8,1.2-9.3,2.9-13.7,4.7
	C214.2,75.8,207.3,78.5,199.5,78.5z M28.9,34.8c3.9-1.3,7.7-2.4,11.9-2.7h5.7c5.8,0.5,11.1,2.3,16.5,4.4c-6.3,1-12.1,3.3-17.7,5.5
	c-5.5,2.2-10.8,4.3-16.4,5.1V34.8z M28.9,63.3c0.6,0,1.2-0.1,1.8-0.1c7.3,0,13.8,2.4,20.5,5c-4.8,1.2-9.3,2.9-13.7,4.7
	c-2.9,1.2-5.8,2.3-8.7,3.2V63.3z M28.9,82.2c3.7-1.1,7.3-2.5,10.8-3.9c7.3-2.9,14.1-5.6,21.9-5.6c0.7,0,1.4,0,2.1,0.1
	c3.1,0.9,6.4,1.6,9.8,1.9c2.7,0.8,5.4,1.8,8.2,2.9c-5.8,1.1-11.2,3.2-16.5,5.3c-7.3,2.9-14.1,5.6-21.9,5.6c-5.1,0-9.8-1.2-14.4-2.8
	V82.2z M28.9,94.7c5.5,0.9,10.6,3,16,5.1c5,2,10.1,4,15.6,5.1c-6.9,2.7-13.5,5.2-21,5.2c-3.7,0-7.2-0.6-10.6-1.6V94.7z M28.9,115
	c4.8,1,9.5,2.8,14.3,4.7c0.2,0.1,0.4,0.2,0.6,0.2c-5.3,0.4-10.2,1.8-14.9,3.5V115z M28.9,129.7c5.8-2.2,11.6-4,17.9-4
	c7.3,0,13.8,2.4,20.5,5c-4.8,1.2-9.3,2.9-13.7,4.7c-7.3,2.9-14.1,5.6-21.9,5.6c-1,0-2,0-2.9-0.1V129.7z M28.9,148.2
	c1.3,0.5,2.6,0.9,3.9,1.5c-1.3,0.2-2.6,0.5-3.9,0.8V148.2z M28.9,156.5c3.3-0.9,6.7-1.5,10.3-1.5c7.8,0,14.7,2.7,21.9,5.6
	c5.3,2.1,10.7,4.2,16.6,5.3c-4.8,1.7-9.5,2.9-14.7,2.9c-7.8,0-14.7-2.7-21.9-5.6c-3.9-1.6-7.9-3.1-12.2-4.3V156.5z M28.9,164.9
	c2.7,0.8,5.4,1.8,8.2,2.9c-2.8,0.5-5.5,1.3-8.2,2.2V164.9z M28.9,176.1c5.1-1.8,10.2-3.2,15.8-3.2c6.7,0,12.6,2,18.7,4.3
	c-6,1-11.6,3.2-17,5.4c-5.9,2.3-11.4,4.5-17.5,5.3V176.1z M28.9,196.5c0.2,0.1,0.4,0.2,0.6,0.2c-0.2,0-0.4,0.1-0.6,0.1V196.5z
	 M28.9,202.7c2.7-0.6,5.4-1,8.2-1c7.8,0,14.7,2.7,21.9,5.6c0.2,0.1,0.4,0.2,0.6,0.2c-7.6,0.6-14.4,3.3-21,5.9
	c-3.3,1.3-6.5,2.6-9.8,3.6V202.7z M28.9,223.1c4.1-1.1,8.1-2.7,11.9-4.2c7.3-2.9,14.1-5.6,21.9-5.6c6.9,0,13,2.1,19.3,4.6
	c-6.3,1-12.1,3.3-17.7,5.5c-7.3,2.9-14.1,5.6-21.9,5.6c-4.8,0-9.2-1-13.5-2.5V223.1z M28.9,233.4c5.9,0.8,11.4,3,17.2,5.3
	c0.2,0.1,0.4,0.2,0.6,0.3c-6.4,0.5-12.2,2.5-17.8,4.6V233.4z M28.9,249.8c6.9-2.7,13.4-5.2,20.9-5.2c7.3,0,13.8,2.4,20.5,5
	c-4.8,1.2-9.3,2.9-13.6,4.7c-7.3,2.9-14.1,5.6-21.9,5.6c-2,0-3.9-0.2-5.8-0.5V249.8z M28.9,266.1c3.2,1,6.3,2.2,9.5,3.5
	c0.2,0.1,0.4,0.2,0.6,0.2c-3.5,0.3-6.9,1-10.1,1.9V266.1z M28.9,277.8c4.2-1.4,8.5-2.3,13.1-2.3c7.8,0,14.7,2.7,21.9,5.6
	c5,2,10.1,4,15.6,5.1c-6.9,2.7-13.5,5.2-21,5.2c-7.8,0-14.7-2.7-21.9-5.6c-2.6-1-5.1-2-7.8-2.9V277.8z M28.9,289.1
	c0.7,0.2,1.3,0.5,2,0.8c-0.7,0-1.3-0.1-2-0.1V289.1z M28.9,295.5c7.5,0.2,14.1,2.8,21.1,5.6c1.5,0.6,3,1.2,4.6,1.8
	c-4.4,1.2-8.6,2.8-12.7,4.4c-4.4,1.7-8.6,3.4-13,4.5V295.5z M28.9,326.7c1.2-0.1,2.4-0.2,3.7-0.2c5.7,0,10.9,1.5,16.2,3.4
	c-5.9,1.1-11.3,3.2-16.5,5.3c-1.1,0.4-2.2,0.9-3.4,1.3V326.7z M28.9,342.7c1.9-0.7,3.7-1.4,5.5-2.1c7.3-2.9,14.1-5.6,21.9-5.6
	c5.1,0,9.8,1.2,14.5,2.8c-6.3,1-12,3.3-17.5,5.5c-7.3,2.9-14.1,5.6-21.9,5.6c-0.8,0-1.6,0-2.4-0.1V342.7z M28.9,356.2
	c2,0.7,4,1.5,6.1,2.3c0.2,0.1,0.4,0.2,0.6,0.2c-2.3,0.2-4.5,0.6-6.7,1.1V356.2z M28.9,365.8c3.1-0.8,6.3-1.3,9.7-1.3
	c7.3,0,13.8,2.4,20.5,5c-4.8,1.2-9.3,2.9-13.7,4.7c-5.6,2.2-10.9,4.3-16.6,5.2V365.8z M28.9,395.4c0.7,0,1.3-0.1,2-0.1
	c6.9,0,13,2.1,19.3,4.6c-6.3,1-12.1,3.3-17.7,5.5c-1.2,0.5-2.4,1-3.7,1.4V395.4z M28.9,413c2-0.7,3.9-1.5,5.8-2.2
	c7.3-2.9,14.1-5.6,21.9-5.6c7.2,0,13.5,2.3,20.1,4.9c-5.8,1.1-11.2,3.2-16.5,5.3c-7.3,2.9-14.1,5.6-21.9,5.6c-3.3,0-6.4-0.5-9.4-1.3
	V413z M28.9,428.3c3.2,0.9,6.4,2.1,9.6,3.4c-3.3,0.8-6.5,1.9-9.6,3.1V428.3z M28.9,441c6.5-2.6,12.9-4.8,20-4.8c0.7,0,1.4,0,2.1,0.1
	c3.1,0.9,6.4,1.6,9.8,1.9c2.7,0.8,5.4,1.8,8.2,2.9c-5.8,1.1-11.2,3.2-16.5,5.3c-7.3,2.9-14.1,5.6-21.9,5.6c-0.6,0-1.1,0-1.7-0.1V441
	z M28.9,461.9c1.1,0.4,2.2,0.8,3.3,1.3c5,2,10.1,4,15.6,5.1c-6.3,2.5-12.3,4.7-18.9,5.2V461.9z M28.9,482.7c0.5,0.2,1,0.4,1.5,0.6
	c0.2,0.1,0.4,0.2,0.6,0.3c-0.7,0.1-1.4,0.1-2.2,0.2V482.7z M28.9,489.6c1.7-0.3,3.4-0.4,5.2-0.4c7.3,0,13.8,2.4,20.5,5
	c-4.8,1.2-9.3,2.9-13.6,4.7c-4.1,1.6-8,3.2-12.1,4.2V489.6z M28.9,509.1c5-1.2,9.7-3,14.2-4.8c7.3-2.9,14.1-5.6,21.9-5.6
	c0.7,0,1.4,0,2.1,0.1c3.1,0.9,6.4,1.6,9.8,1.9c2.7,0.8,5.4,1.8,8.2,2.9c-5.8,1.1-11.2,3.2-16.5,5.3c-7.3,2.9-14.1,5.6-21.9,5.6
	c-6.3,0-12.1-1.8-17.9-4V509.1z M28.9,518.5c6.8,0.5,13,2.9,19.5,5.5c5.3,2.1,10.7,4.2,16.6,5.3c-4.8,1.7-9.5,2.9-14.7,2.9
	c-7.6,0-14.3-2.6-21.3-5.4V518.5z M28.9,536.4c1-0.1,2-0.1,3.1-0.1c6.7,0,12.6,2,18.7,4.3c-6,1-11.6,3.2-17,5.4
	c-1.6,0.6-3.2,1.3-4.8,1.9V536.4z M28.9,554c2.3-0.8,4.6-1.7,6.9-2.6c7.3-2.9,14.1-5.6,21.9-5.6c7.3,0,13.8,2.4,20.5,5
	c-4.8,1.2-9.3,2.9-13.6,4.7c-7.3,2.9-14.1,5.6-21.9,5.6c-4.9,0-9.3-1.1-13.8-2.5V554z M260.9,573.5h-232v-8c6,0.8,11.6,3,17.4,5.3
	c0.2,0.1,0.4,0.2,0.6,0.3c-4.1,0.3-7.9,1.2-11.6,2.4h52.1c2.4-0.8,4.7-1.7,7-2.7c7.3-2.9,14.1-5.6,21.9-5.6c7.8,0,14.7,2.7,21.9,5.6
	c0.2,0.1,0.4,0.2,0.6,0.3c-4.1,0.3-7.9,1.2-11.6,2.4h52.1c2.4-0.8,4.7-1.7,7-2.7c7.3-2.9,14.1-5.6,21.9-5.6c7.8,0,14.7,2.7,21.9,5.6
	c0.2,0.1,0.4,0.2,0.6,0.3c-4.1,0.3-7.9,1.2-11.6,2.4H260.9L260.9,573.5z M260.9,570.4c-2.2,0.4-4.4,0.6-6.7,0.6
	c-7.2,0-13.5-2.3-20.1-4.9c5.8-1.1,11.2-3.2,16.5-5.3c3.5-1.4,6.9-2.7,10.3-3.7V570.4z M260.9,551.2c-4.3,1.2-8.4,2.7-12.4,4.3
	c-7.3,2.9-14.1,5.6-21.9,5.6c-7.3,0-13.8-2.4-20.5-5c4.8-1.2,9.3-2.9,13.6-4.7c7.3-2.9,14.1-5.6,21.9-5.6c6.9,0,13,2.1,19.3,4.6
	V551.2z M260.9,542.1c-6.8-0.2-12.9-2.4-19.2-4.8c5.8-1.1,11.2-3.2,16.5-5.3c0.9-0.4,1.8-0.7,2.7-1.1V542.1z M260.9,523.9
	c-1.5,0.2-3,0.3-4.6,0.3c-6.9,0-13-2.1-19.3-4.5c6.3-1,12-3.3,17.6-5.5c2.1-0.8,4.2-1.6,6.2-2.4V523.9z M260.9,505.7
	c-2.9,0.9-5.6,2-8.4,3.1c-7.3,2.9-14.1,5.6-21.9,5.6c-7.2,0-13.5-2.3-20.1-4.9c5.8-1.1,11.2-3.2,16.5-5.3c7.3-2.9,14.1-5.6,21.9-5.6
	c0.7,0,1.4,0,2.1,0.1c3.1,0.9,6.4,1.6,9.8,1.9c0,0,0,0,0.1,0V505.7z M260.9,494.6c-2.8-0.8-5.8-1.4-8.9-1.6c-3.3-1-6.6-2.3-10-3.6
	c-0.2-0.1-0.4-0.2-0.6-0.3c7.1-0.5,13.4-2.9,19.5-5.3V494.6z M260.9,477.6c-0.2,0.1-0.4,0.2-0.6,0.3c-7.3,2.9-14.1,5.6-21.9,5.6
	c-7.2,0-13.5-2.3-20.1-4.9c5.8-1.1,11.2-3.2,16.5-5.3c7.3-2.9,14.1-5.6,21.9-5.6c1.5,0,2.9,0.1,4.3,0.3V477.6z M260.9,458.2
	c-6.9,2.7-13.4,5.2-20.8,5.2c-7.8,0-14.7-2.7-21.9-5.6c-0.2-0.1-0.4-0.2-0.6-0.2c7.6-0.6,14.4-3.3,21-5.9c7.3-2.9,14.1-5.6,21.9-5.6
	c0.2,0,0.3,0,0.5,0V458.2z M260.9,438c-0.9-0.3-1.8-0.7-2.7-1.1c0.9-0.2,1.8-0.5,2.7-0.7V438z M260.9,430.1
	c-4.2,1.4-8.5,2.3-13.1,2.3c-0.7,0-1.4,0-2.1-0.1c-3.1-0.9-6.4-1.6-9.8-1.9c-3.3-1-6.6-2.3-10-3.6c-0.2-0.1-0.4-0.2-0.6-0.3
	c7.6-0.6,14.4-3.3,21-5.9c4.9-2,9.7-3.8,14.7-4.8V430.1z M260.9,401.2c0,0-0.1,0-0.1,0c-7.8,0-14.7-2.7-21.9-5.6
	c-0.2-0.1-0.4-0.2-0.6-0.2c7.6-0.6,14.4-3.3,21-5.9c0.6-0.2,1.1-0.4,1.7-0.7V401.2z M260.9,382.6c-1.3,0.5-2.6,1-3.8,1.5
	c-7.3,2.9-14.1,5.6-21.9,5.6c-7.2,0-13.5-2.3-20.1-4.9c5.8-1.1,11.2-3.2,16.5-5.3c7.3-2.9,14.1-5.6,21.9-5.6c0.7,0,1.4,0,2.1,0.1
	c1.7,0.5,3.5,0.9,5.3,1.3V382.6z M260.9,368.9c-1.4-0.3-2.9-0.5-4.3-0.6c-3.3-1-6.6-2.3-10-3.6c-0.2-0.1-0.4-0.2-0.6-0.2
	c5.3-0.4,10.3-1.8,15-3.6V368.9z M260.9,354.6c-5.9,2.2-11.6,4.1-18,4.1c-7.2,0-13.5-2.3-20.1-4.9c5.8-1.1,11.2-3.2,16.5-5.3
	c7.2-2.8,14-5.5,21.7-5.6V354.6z M260.9,332.3c-6.5-0.3-12.4-2.4-18.6-4.8c5.8-1.1,11.2-3.2,16.5-5.3c0.7-0.3,1.4-0.6,2.1-0.8V332.3
	z M260.9,315.2c-1.4,0.5-2.8,1.1-4.2,1.6c-7.3,2.9-14.1,5.6-21.9,5.6c-7.3,0-13.8-2.4-20.5-5c4.8-1.2,9.3-2.9,13.6-4.7
	c7.3-2.9,14.1-5.6,21.9-5.6c3.9,0,7.5,0.7,11.1,1.7V315.2z M260.9,301.2c-1,0.1-1.9,0.1-2.9,0.1c-6.5,0-12.3-1.9-18.3-4.2
	c0.9,0.1,1.8,0.1,2.8,0.1c6.7,0,12.7-1.7,18.4-3.8V301.2z M260.9,287.2c-6,2.3-11.9,4.2-18.4,4.2c-7.8,0-14.7-2.7-21.9-5.6
	c-5-2-10.1-4-15.6-5.1c6.9-2.7,13.5-5.2,21-5.2c7.8,0,14.7,2.7,21.9,5.6c4.2,1.7,8.5,3.4,13.1,4.5V287.2z M260.9,279.6
	c-3.7-1-7.2-2.5-10.9-3.9c-0.2-0.1-0.4-0.2-0.6-0.2c4.1-0.3,7.9-1.2,11.6-2.4V279.6z M260.9,267c-4.7,1.6-9.5,2.8-14.6,2.8
	c-7.2,0-13.5-2.3-20.1-4.9c5.8-1.1,11.2-3.2,16.5-5.3c6.1-2.4,11.9-4.7,18.3-5.4V267z M260.9,246c-1.1-0.4-2.1-0.8-3.2-1.3
	c-0.2-0.1-0.4-0.2-0.6-0.3c1.3-0.1,2.6-0.3,3.9-0.5V246z M260.9,238.2c-2.2,0.4-4.5,0.7-6.9,0.7c-7.2,0-13.5-2.3-20.1-4.9
	c5.8-1.1,11.2-3.2,16.5-5.3c3.6-1.4,7-2.8,10.5-3.8V238.2z M260.9,218.9c-4.4,1.2-8.6,2.8-12.7,4.4c-7.3,2.9-14.1,5.6-21.9,5.6
	c-6.9,0-13-2.1-19.3-4.6c6.3-1,12.1-3.3,17.7-5.5c7.3-2.9,14.1-5.6,21.9-5.6c5.1,0,9.7,1.1,14.3,2.7V218.9z M260.9,207
	c-4.8-0.8-9.4-2.5-14-4.3c4.9-0.9,9.6-2.6,14-4.3V207z M260.9,192.2c-7.1,2.8-13.9,5.5-21.6,5.5c-7.3,0-13.8-2.4-20.5-5
	c4.8-1.2,9.3-2.9,13.7-4.7c7.3-2.9,14.1-5.6,21.9-5.6c2.3,0,4.4,0.2,6.6,0.6V192.2z M260.9,176.1c-2.2-0.7-4.3-1.5-6.5-2.4
	c2.2-0.4,4.4-1,6.5-1.6V176.1z M260.9,166.1c-4.5,1.5-9.1,2.6-14.1,2.6c-7.8,0-14.7-2.7-21.9-5.6c-5.3-2.1-10.7-4.2-16.6-5.3
	c4.8-1.7,9.5-2.9,14.7-2.9c7.8,0,14.7,2.7,21.9,5.6c5.1,2,10.3,4,15.9,5.1V166.1z M260.9,159.8c-3.8-0.8-7.4-2.1-11.1-3.6
	c3.9-0.6,7.6-1.7,11.1-3V159.8z M260.9,147.1c-5.7,2.2-11.3,3.9-17.5,3.9c-7.2,0-13.5-2.3-20.1-4.9c5.8-1.1,11.2-3.2,16.5-5.3
	c7-2.8,13.7-5.4,21.2-5.6V147.1z M260.9,128.3c-2-0.7-4.1-1.5-6.1-2.3c-0.2-0.1-0.4-0.2-0.6-0.2c2.3-0.2,4.6-0.6,6.8-1.1V128.3z
	 M260.9,118.6c-3.2,0.8-6.4,1.3-9.8,1.3c-7.2,0-13.5-2.3-20.1-4.9c5.8-1.1,11.2-3.2,16.5-5.3c4.5-1.8,8.9-3.5,13.5-4.6V118.6z
	 M260.9,99c-2.6,0.6-5.3,0.9-8.1,0.9c-7.8,0-14.7-2.7-21.9-5.6c-0.2-0.1-0.4-0.2-0.6-0.3c7.6-0.6,14.4-3.3,21-5.9
	c3.3-1.3,6.4-2.6,9.7-3.5V99z M260.9,78.7c-4.1,1.1-8,2.7-11.8,4.2c-7.3,2.9-14.1,5.6-21.9,5.6c-7.2,0-13.5-2.3-20.1-4.9
	c5.8-1.1,11.2-3.2,16.5-5.3c7.3-2.9,14.1-5.6,21.9-5.6c0.7,0,1.4,0,2.1,0.1c3.1,0.9,6.4,1.6,9.8,1.9c1.2,0.4,2.3,0.8,3.5,1.2V78.7z
	 M260.9,69c-0.1,0-0.3,0-0.4,0c-0.7,0-1.4,0-2.1-0.1c-3.1-0.9-6.4-1.6-9.8-1.9c-3.3-1-6.6-2.3-10-3.6c-0.2-0.1-0.4-0.2-0.6-0.2
	c7.6-0.6,14.4-3.3,21-5.9c0.7-0.3,1.3-0.5,1.9-0.8V69z M260.9,50.3c-1.4,0.5-2.7,1.1-4.1,1.6c-7.3,2.9-14.1,5.6-21.9,5.6
	c-7.2,0-13.5-2.3-20.1-4.9c5.8-1.1,11.2-3.2,16.5-5.3c7.3-2.9,14.1-5.6,21.9-5.6c2.7,0,5.2,0.3,7.7,0.8V50.3z M260.9,35.6
	c-3.1-1-6.2-2.2-9.3-3.4c-0.1,0-0.1-0.1-0.2-0.1h9.5V35.6z"/>
</svg>
