<?xml version="1.0" encoding="utf-8"?>
<!-- Generator: Adobe Illustrator 21.0.2, SVG Export Plug-In . SVG Version: 6.00 Build 0)  -->
<svg version="1.1" id="Layer_1" xmlns="http://www.w3.org/2000/svg" xmlns:xlink="http://www.w3.org/1999/xlink" x="0px" y="0px"
	 viewBox="0 0 85.1 128.6" style="enable-background:new 0 0 85.1 128.6;" xml:space="preserve">
<style type="text/css">
	.st0{fill:none;stroke:#FF2F00;stroke-width:3;stroke-linecap:round;stroke-linejoin:round;stroke-miterlimit:10;}
	.st1{fill:none;stroke:#FF2F00;stroke-width:3;stroke-miterlimit:10;}
	.st2{fill:#FF2C00;}
	.st3{font-family:'GuruSans-Regular';}
	.st4{font-size:24px;}
	.st5{fill:none;stroke:#FF2C00;stroke-width:3;stroke-linecap:round;stroke-linejoin:round;stroke-miterlimit:10;}
</style>
<path class="st0" d="M74.4,67.9c0-0.4-6.9,0.1-6.9,0.1c-0.2-1.1-1.9-2.9-3.3-2.6c-3.6,0.9-1.7,6.7,1.8,5.9c1-0.2,1.5-1.5,1.6-2.7
	C67.6,68.6,74.4,68.2,74.4,67.9z"/>
<text transform="matrix(1 0 0 1 22.7261 43.2583)"><tspan x="0" y="0" class="st2 st3 st4">B</tspan><tspan x="0" y="19.5" class="st2 st3 st4">A</tspan><tspan x="0" y="39" class="st2 st3 st4">C</tspan><tspan x="0" y="58.5" class="st2 st3 st4">K</tspan></text>
<path class="st0" d="M21.3,6.5c-3.1,0.1-6.1,0.1-9.2,0.3C9.8,6.9,7.6,6.6,6.9,9.1c-0.8,2.8-0.4,6.4-0.5,9.3
	c-0.1,3.4-0.2,6.7-0.2,10.1c-0.1,6.3,0.1,12.4,0.2,18.7c0.2,12.3,0.1,24.6,0,36.9c-0.1,6.6,0.1,13.2-0.1,19.8
	c-0.1,3.2-0.2,6.5-0.2,9.7c0,2.1-0.7,6.1,0.7,7.8c1.5,1.8,5.6,1.1,7.7,1.1c3.2,0,6.3-0.2,9.5-0.3c6.2,0,12.4,0.1,18.6,0
	c6.2-0.1,12.3-0.5,18.4-0.5c2.5,0,4.9,0.1,7.4,0.1c2.3,0,5.4,0.5,7.6-0.2c2.7-0.8,2.3-4.1,2.4-6.4c0.1-3.6,0.2-7.2,0.4-10.8
	c0.2-6.3,0.3-12.5,0.3-18.8c0-6.3-0.4-12.5-0.2-18.8c0.2-5.8,0.3-11.7-0.1-17.5c-0.5-7.1-0.3-14.1,0-21.2c0.1-3.2,0.2-6.4,0.2-9.6
	c0-3.1,0.6-6.8-0.6-9.8c-1.2-3-4.9-2.4-7.6-2.5c-3.2-0.1-6.4,0-9.7,0.1C54.4,6.5,47.7,5.9,40.9,6C40.9,6,27.8,6.3,21.3,6.5z"/>
<path class="st0" d="M71.8,16.6c-0.2-3.4-17.7-2.4-20.1-2.3c-6.5,0.4-12.9,0.2-19.4,0.3c-3.2,0.1-6.4,0.1-9.6-0.1
	c-2.3-0.1-5.9-1.2-7.6,0.8c-1.3,1.5-0.7,3.4-0.7,5.2c0,3-0.3,6-0.4,9c-0.1,6.8,0.4,13.5,0.5,20.3c0.1,14-0.3,28-0.5,42
	c-0.1,6.8-1.3,12-0.7,18.8c0.6,6.3,6.9,3.8,11.5,3.4c12.6-0.9,25.3-0.1,37.9-0.5c5.9-0.2,6-2.9,6-8.2c0-7.3-0.4-12.5,0-19.8
	c0.1-1.7,0.6-4-0.5-5.5c-1.4-1.8-4.3-1.5-6.2-2.2c-4.3-1.5-6.7-5.1-6.8-9.7c-0.1-5,2.6-8.6,7.5-9.6c5.1-1,7.9-1.2,8.5-7.2
	c0.8-7.7-0.1-15.5,0.3-23.3C71.9,23.5,72.2,21.5,71.8,16.6z"/>
<path class="st5" d="M68.5,91.2c-10.5,0.1-25,5.5-38.9,15.1c-4,2.8-7.7,5.7-10.9,8.7"/>
<path class="st5" d="M47.3,14.4c3.9,4.4,8.6,8.7,13.9,12.7c3.4,2.6,6.8,4.9,10.3,6.9"/>
</svg>
