<svg id="Layer_1" data-name="Layer 1" xmlns="http://www.w3.org/2000/svg" viewBox="0 0 623.6 623.6"><defs><style>.cls-1{fill:#f89b3a;}.cls-2{fill:#fef9e4;}.cls-3{fill:#fffef1;}</style></defs><title>guru-weather</title><g id="Layer_1-2" data-name="Layer 1"><path class="cls-1" d="M-14.5,247.3c-13.9-18.5-36.8-29.4-62.2-35.1-20.7-39.8-74.5-71.5-122.7-78.2-43.9-6-115.8,4.3-142.9,59.8a102.16,102.16,0,0,0-6.2,16.2c-31.7,6.6-66.5,25.4-76.4,63.5-7,27.1-.1,58.6,17.1,80.8A84,84,0,0,0-365,383.5a64.35,64.35,0,0,0,2.9,20.1c12.8,39.8,59.5,44.7,61.9,44.9,24.5,2.1,51.9-7.3,73.7-24.5a82.7,82.7,0,0,0,22.1,18c24.7,13.7,55.4,13.2,78.6-.3,13.4-7.8,23-19.2,29.7-32.4C-31.7,398.8,28.5,304.7-14.5,247.3Z"/><path class="cls-1" d="M609.3,247.3c-13.9-18.5-36.8-29.4-62.2-35.1-20.7-39.8-74.5-71.5-122.7-78.2-43.9-6-115.8,4.3-142.9,59.8a102.16,102.16,0,0,0-6.2,16.2c-31.7,6.6-66.5,25.4-76.4,63.5-7,27.1-.1,58.6,17.1,80.8a84,84,0,0,0,42.8,29.2,64.35,64.35,0,0,0,2.9,20.1c12.8,39.8,59.5,44.7,61.9,44.9,24.5,2.1,51.9-7.3,73.7-24.5a82.7,82.7,0,0,0,22.1,18c24.7,13.7,55.4,13.2,78.6-.3,13.4-7.8,23-19.2,29.7-32.4C592.1,398.8,652.2,304.7,609.3,247.3Z"/><path class="cls-2" d="M521.8,195.4c-7-18.1-29.1-20.3-45.6-18.7,2.6-5.2.4-13.8-.2-19.3a188,188,0,0,1-1.3-19.8c0-15.1-.6-29.1-6-43.5-3.5-9.3-8.7-16.8-17.1-22.1-6-3.8-11.9-8.2-17.8-12.1-3.2-2.1-7.3-3.4-10.6-.1a3.38,3.38,0,0,0-2.5-2.4c-1.4,2.7-35.1,1.1-35.7-2.3q-1.8.6-3,.9a9.25,9.25,0,0,1,.5,1c-7.2,2.6-14.6,6.7-21.5,10.1-7.9,3.9-16.3,7-18.1,16.5-2,11.1-4.9,22.2-6.8,33.3-1.1,6.2-1.1,12.8-3.3,18.8l.2-.1c-2.3,5.5-2.3,11.4-3.2,17.2-1.1,7-4,15.4-.5,22.3-13.7-.1-36.2.5-37.4,18.4-.6,9.8.9,22.1,7.4,29.9,5.7,6.7,17.7,10.1,26,12.1s16,3.3,24.7,2.6c1.6-.1,6.7-1.5,7.8-.4,1.8,1.8-.5,7.9-.9,10.1-2.3,12,9,12,18.4,12.2,8.3.2,16.7-.5,25-.9a86.37,86.37,0,0,0,16.1-1.9c3.5-.8,10.9-1.6,13.3-4.7,3.8,3.8,12,1.1,13.5-3.5,15.1,0,26.5.5,40.9-5.8a73.5,73.5,0,0,0,27-20.8C516.8,215.6,525.8,204.5,521.8,195.4Z"/><path class="cls-1" d="M356.8,191.1a3.27,3.27,0,0,0,1.1,2.9,39.73,39.73,0,0,0,5,4.2c1.1.9,2.1,1.8,3.2,2.7,2.9,2.3,6.3,4,8.9,6.6,1.1,1.1,2.3,2,3.4,3a16.9,16.9,0,0,1,3.5,4.9v-.2a24.77,24.77,0,0,1,1.7,3.7c.4,1.3.7,2.7,1.2,4s1,2.9,1.6,4.3c.2.7.9,1.2,1.1,1.8s-.1.9-.3,1.4a25.28,25.28,0,0,0-1.9,4.5c-.2.9-.5,1.8-.8,2.8-.4,1.4-.7,3.1.3,4.3a4.06,4.06,0,0,0,3.8.9c-.4.4-.3,1.7-.2,2.3a3,3,0,0,0,1.2,1.7,3.36,3.36,0,0,0,3.8.5c.5-.3.4-.4.9,0a2.51,2.51,0,0,0,.7.4,3,3,0,0,0,2.1.3c1.5-.4,1.9-1.9,2.3-3.2,0,.5.9,1,1.3,1.2a7,7,0,0,0,1.9.6c1.3.2,2.2-1,2.2-2.3a4.47,4.47,0,0,0,3.1,1.2c1.5-.1,1.9-1.9,2.4-3,0,.3,1.4,0,1.5,0a2.25,2.25,0,0,0,1.6-1c.8-1.3,0-2.8,0-4.1.4.8,1.9.8,2.7.8a1.75,1.75,0,0,0,1.8-1.1,6.38,6.38,0,0,0,.1-2.4c0-1.1-.4-2.4.1-3.4,1-2,2.3-3.9,3.4-5.9.5-1,1.1-2,1.6-2.9.3-.5.4-.9.9-1.2s.7-.3.8-.8,0-.9.1-1.3a3.51,3.51,0,0,1,.6-1.6,41.56,41.56,0,0,1,2.4-4.7,15,15,0,0,1,1.5-2.3l2.1-2.4a11.62,11.62,0,0,1,5.1-3.6,29.75,29.75,0,0,0,4.7-2.4,99.49,99.49,0,0,0,9.2-6.2,26.74,26.74,0,0,0,4.4-4.1c.6-.9-2.8-4.5-7.1-7.2a10.64,10.64,0,0,0-5.8-1.7h-2.2a17.78,17.78,0,0,0-3.1.2c-.3.1-.6.4-.9.5-1,.5-2.2,2.2-5.7,4.4s-21.3,12.1-21.5,12.2-.4,0-.8-.2l-2.4-.9c-1.1-.4-2.3-.9-3.4-1.3-2.4-.9-4.8-1.9-7.2-2.7a43.42,43.42,0,0,1-5-2,50.23,50.23,0,0,1-5.9-3.9c-1.1-.8-2.2-1.7-3.2-2.5-.7-.6-2.9-3.8-5.5-4.1C375.2,182.7,359.8,183.2,356.8,191.1Z"/><path class="cls-1" d="M395.1.5a20.59,20.59,0,0,0-8.2,6.4,14.69,14.69,0,0,0-2.3,4.9,25.36,25.36,0,0,0-1.2,6.1c-.1,2-.1,3.9-.1,5.9V25c0,.6.2,2.1-.2,2.6a3.36,3.36,0,0,1-1.4.5,4.1,4.1,0,0,0-2.1,2c-1,1.9-.9,4-.9,6.1a21.87,21.87,0,0,0,1.1,6.7,7.47,7.47,0,0,0,3.6,4.4,2.84,2.84,0,0,1,1.1.8c.7.7.5,2,.5,2.9.1,3.7.5,7.2,3.1,10.1a5.57,5.57,0,0,1,1.4,4.8,5.71,5.71,0,0,1-1.3,2.1c-.6.8-1,1.7-1.5,2.5-.7,1.3-1.8,4.2-.4,5.4a6.21,6.21,0,0,0,3.1.8l2.4.3c2.7.2,5.5.1,8.2.1a29.57,29.57,0,0,0,5.2-.6,26.33,26.33,0,0,0,5.5-2.2,36.52,36.52,0,0,0,3.4-1.8,11.13,11.13,0,0,0,4.3-4.8c1.7-2.8,2-6,2.2-9.2a8.49,8.49,0,0,1,.9-2.2,14,14,0,0,0,1-3.5,8.6,8.6,0,0,0,.1-1.6,3.35,3.35,0,0,0,0-1c0-.1-.3-1.4.3-1.7,3.1-1.3,4-5.1,4.5-8.1a53.56,53.56,0,0,0,.6-6.9c.1-2.2-.4-3.7-2.6-4.6-.5-.2-1.1-.3-1.4-.8a5.24,5.24,0,0,1-.3-2.5,56.49,56.49,0,0,0-.5-7.1,32.16,32.16,0,0,0-1-5.4,22.64,22.64,0,0,0-2.5-4.9A17.16,17.16,0,0,0,416,3.9,18.53,18.53,0,0,0,410.1.8,33.59,33.59,0,0,0,403,0c-1.6,0-3,0-4.4.1A20.85,20.85,0,0,0,395.1.5Z"/><path class="cls-3" d="M284.6,312.3c-11.1,6.8-21.1,16.5-25.4,29.1-3.6,10.5-4,27.5,11.8,26.5,12.2-.8,13.2-20.1,15.1-29.2.6-2.9.5-9.4,2.1-11.6s4.8-2.4,6.2-5.2c2.7-5.6-3.7-13.3-9.8-9.6"/><path class="cls-3" d="M518.2,341.1c-5.1,3-4.4,12.2-5.1,17.4a116,116,0,0,0-1,18.6c.2,8.9,2.3,23.4,15.1,17.3,10.8-5.1,4.8-20.1,2.6-28.5-.9-3.4-1.9-6-1.9-9.4,0-3,1.4-6.1,1.2-9.1-.3-5.5-5.9-9.3-10.9-6.3"/><path class="cls-3" d="M544.67,445.87c9.09,14.51,15.26,32.81,11.14,50-1.39,5.84-3.34,13.91-8,18-4.92,4.1-13.1,4.17-18.6,1.11-6-3.38-7.77-10-6.57-16.34,1.52-8.47,3.89-17.07,6.09-25.39.85-3.19,4.23-9.75,3.85-12.89-.54-3.89-4.55-5.72-3.92-10.29,1-7.45,11.85-11.06,16.06-4.18"/><path class="cls-3" d="M403.9,493.8c7.8,5.8,11.1,22.5,10.4,31.7-.4,5.5-1.3,11.8-6.2,15.2a13.05,13.05,0,0,1-14.2.1c-10.1-6.8-2.8-20.7-1.7-29.8.6-4.5-3.4-8.8-.6-13.8a9.22,9.22,0,0,1,12.3-3.4"/><path class="cls-3" d="M253.13,447.19c6.4-3.2,13.13,1.94,12.84,8.68-.07,6.69-3.29,11.54-1.71,18.25,2.59,10.79,9.44,32.69-4,38.95-5.74,2.65-13.23,1.65-16.56-4.27-3.11-5.55-1.62-14.15-1.28-20.26a157.45,157.45,0,0,1,3.27-22.7c1.21-5.88,1.23-15.59,7.39-18.65"/></g></svg>